TiroDevaMarathi-Regular.ufo
<glyph name="dJa" format="2">
  <advance width="735"/>
  <unicode hex="091C"/>
  <outline>
    <contour>
      <point x="325" y="85" type="curve" smooth="yes"/>
      <point x="399" y="85"/>
      <point x="464" y="130"/>
      <point x="464" y="208" type="curve" smooth="yes"/>
      <point x="464" y="264"/>
      <point x="431" y="308"/>
      <point x="367" y="371" type="curve"/>
      <point x="287" y="361" type="line"/>
      <point x="352" y="332"/>
      <point x="385" y="289"/>
      <point x="385" y="246" type="curve" smooth="yes"/>
      <point x="385" y="202"/>
      <point x="352" y="166"/>
      <point x="298" y="166" type="curve" smooth="yes"/>
      <point x="209" y="166"/>
      <point x="132" y="265"/>
      <point x="63" y="411" type="curve"/>
      <point x="22" y="393" type="line"/>
      <point x="96" y="234"/>
      <point x="189" y="85"/>
    </contour>
    <contour>
      <point x="594" y="355" type="line"/>
      <point x="594" y="430" type="line"/>
      <point x="260" y="430" type="line"/>
      <point x="260" y="419" type="line"/>
      <point x="287" y="361" type="line"/>
      <point x="345" y="355" type="line"/>
    </contour>
    <contour>
      <point x="648" y="-10" type="line"/>
      <point x="646" y="581" type="line"/>
      <point x="562" y="581" type="line"/>
      <point x="558" y="42" type="line"/>
      <point x="638" y="-10" type="line"/>
    </contour>
    <contour>
      <point x="763" y="545" type="line"/>
      <point x="763" y="555" type="line"/>
      <point x="729" y="620" type="line"/>
      <point x="-28" y="620" type="line"/>
      <point x="-28" y="610" type="line"/>
      <point x="6" y="545" type="line"/>
    </contour>
  </outline>
</glyph>
<glyph name="dDha" format="2">
  <advance width="654"/>
  <unicode hex="0927"/>
  <outline>
    <contour>
      <point x="215" y="417" type="curve" smooth="yes"/>
      <point x="172" y="417"/>
      <point x="127" y="441"/>
      <point x="127" y="493" type="curve" smooth="yes"/>
      <point x="127" y="535"/>
      <point x="158" y="564"/>
      <point x="204" y="564" type="curve" smooth="yes"/>
      <point x="243" y="564"/>
      <point x="270" y="545"/>
      <point x="287" y="491" type="curve"/>
      <point x="296" y="491" type="line"/>
      <point x="297" y="499"/>
      <point x="298" y="508"/>
      <point x="298" y="518" type="curve" smooth="yes"/>
      <point x="298" y="576"/>
      <point x="265" y="633"/>
      <point x="180" y="633" type="curve" smooth="yes"/>
      <point x="107" y="633"/>
      <point x="54" y="591"/>
      <point x="54" y="525" type="curve" smooth="yes"/>
      <point x="54" y="458"/>
      <point x="110" y="402"/>
      <point x="173" y="372" type="curve"/>
      <point x="173" y="387" type="line"/>
      <point x="141" y="362"/>
      <point x="127" y="338"/>
      <point x="127" y="304" type="curve" smooth="yes"/>
      <point x="127" y="230"/>
      <point x="209" y="119"/>
      <point x="340" y="119" type="curve" smooth="yes"/>
      <point x="385" y="119"/>
      <point x="440" y="133"/>
      <point x="505" y="177" type="curve"/>
      <point x="500" y="280" type="line"/>
      <point x="409" y="205"/>
      <point x="343" y="184"/>
      <point x="299" y="184" type="curve" smooth="yes"/>
      <point x="246" y="184"/>
      <point x="200" y="214"/>
      <point x="200" y="260" type="curve" smooth="yes"/>
      <point x="200" y="308"/>
      <point x="247" y="349"/>
      <point x="389" y="363" type="curve"/>
      <point x="352" y="441" type="line"/>
      <point x="292" y="435"/>
      <point x="253" y="417"/>
    </contour>
    <contour>
      <point x="682" y="545" type="line"/>
      <point x="682" y="555" type="line"/>
      <point x="648" y="620" type="line"/>
      <point x="359" y="620" type="line"/>
      <point x="359" y="610" type="line"/>
      <point x="393" y="545" type="line"/>
    </contour>
    <contour>
      <point x="567" y="-10" type="line"/>
      <point x="565" y="581" type="line"/>
      <point x="482" y="581" type="line"/>
      <point x="478" y="41" type="line"/>
      <point x="557" y="-10" type="line"/>
    </contour>
  </outline>
</glyph>
<glyph name="dSa" format="2">
  <advance width="679"/>
  <unicode hex="0938"/>
  <outline>
    <contour>
      <point x="316" y="-20" type="line"/>
      <point x="367" y="22" type="line"/>
      <point x="151" y="246" type="line"/>
      <point x="144" y="235" type="line"/>
      <point x="208" y="243"/>
      <point x="240" y="269"/>
      <point x="257" y="323" type="curve" smooth="yes"/>
      <point x="266" y="350"/>
      <point x="273" y="404"/>
      <point x="273" y="471" type="curve" smooth="yes"/>
      <point x="273" y="487"/>
      <point x="272" y="544"/>
      <point x="268" y="564" type="curve"/>
      <point x="188" y="564" type="line"/>
      <point x="189" y="543"/>
      <point x="191" y="523"/>
      <point x="191" y="482" type="curve" smooth="yes"/>
      <point x="191" y="446"/>
      <point x="190" y="391"/>
      <point x="181" y="358" type="curve"/>
      <point x="192" y="367" type="line"/>
      <point x="171" y="370"/>
      <point x="119" y="374"/>
      <point x="97" y="374" type="curve" smooth="yes"/>
      <point x="61" y="374"/>
      <point x="46" y="364"/>
      <point x="46" y="342" type="curve" smooth="yes"/>
      <point x="46" y="313"/>
      <point x="63" y="277"/>
      <point x="129" y="196" type="curve" smooth="yes"/>
      <point x="306" y="-20" type="line"/>
    </contour>
    <contour>
      <point x="417" y="224" type="curve" smooth="yes"/>
      <point x="451" y="224"/>
      <point x="486" y="231"/>
      <point x="518" y="245" type="curve"/>
      <point x="512" y="346" type="line"/>
      <point x="494" y="325"/>
      <point x="444" y="301"/>
      <point x="391" y="301" type="curve" smooth="yes"/>
      <point x="342" y="301"/>
      <point x="275" y="321"/>
      <point x="255" y="337" type="curve"/>
      <point x="231" y="304" type="line"/>
      <point x="313" y="233"/>
      <point x="378" y="224"/>
    </contour>
    <contour>
      <point x="592" y="-10" type="line"/>
      <point x="590" y="571" type="line"/>
      <point x="506" y="571" type="line"/>
      <point x="502" y="42" type="line"/>
      <point x="582" y="-10" type="line"/>
    </contour>
    <contour>
      <point x="707" y="545" type="line"/>
      <point x="707" y="555" type="line"/>
      <point x="673" y="620" type="line"/>
      <point x="-28" y="620" type="line"/>
      <point x="-28" y="610" type="line"/>
      <point x="6" y="545" type="line"/>
    </contour>
  </outline>
</glyph>
<glyph name="dSignU" format="2">
  <unicode hex="0941"/>
  <outline>
    <contour>
      <point x="-202" y="-139" type="line"/>
      <point x="-179" y="-120"/>
      <point x="-150" y="-91"/>
      <point x="-111" y="-91" type="curve" smooth="yes"/>
      <point x="-83" y="-91"/>
      <point x="-59" y="-105"/>
      <point x="-59" y="-138" type="curve" smooth="yes"/>
      <point x="-59" y="-178"/>
      <point x="-96" y="-211"/>
      <point x="-160" y="-211" type="curve" smooth="yes"/>
      <point x="-234" y="-211"/>
      <point x="-300" y="-165"/>
      <point x="-401" y="-37" type="curve"/>
      <point x="-408" y="-37" type="line"/>
      <point x="-443" y="-80" type="line"/>
      <point x="-392" y="-139"/>
      <point x="-250" y="-279"/>
      <point x="-125" y="-279" type="curve" smooth="yes"/>
      <point x="-56" y="-279"/>
      <point x="2" y="-236"/>
      <point x="2" y="-169" type="curve" smooth="yes"/>
      <point x="2" y="-97"/>
      <point x="-65" y="-29"/>
      <point x="-147" y="-29" type="curve" smooth="yes"/>
      <point x="-191" y="-29"/>
      <point x="-224" y="-48"/>
      <point x="-256" y="-77" type="curve"/>
    </contour>
  </outline>
</glyph>
<glyph name="dSignE" format="2">
  <unicode hex="0947"/>
  <outline>
    <contour>
      <point x="-488" y="893" type="line"/>
      <point x="-442" y="808" type="line"/>
      <point x="-411" y="814"/>
      <point x="-368" y="819"/>
      <point x="-346" y="819" type="curve" smooth="yes"/>
      <point x="-290" y="819"/>
      <point x="-252" y="773"/>
      <point x="-155" y="608" type="curve"/>
      <point x="-101" y="608" type="line"/>
      <point x="-207" y="788"/>
      <point x="-281" y="911"/>
      <point x="-383" y="911" type="curve" smooth="yes"/>
      <point x="-395" y="911"/>
      <point x="-435" y="909"/>
      <point x="-487" y="900" type="curve"/>
    </contour>
  </outline>
</glyph>
<glyph name="dSignAi" format="2">
  <unicode hex="0948"/>
  <outline>
    <contour>
      <point x="-96" y="608" type="line"/>
      <point x="-207" y="849"/>
      <point x="-258" y="964"/>
      <point x="-374" y="964" type="curve" smooth="yes"/>
      <point x="-397" y="964"/>
      <point x="-436" y="959"/>
      <point x="-470" y="954" type="curve"/>
      <point x="-471" y="947" type="line"/>
      <point x="-429" y="869" type="line"/>
      <point x="-405" y="874"/>
      <point x="-373" y="879"/>
      <point x="-345" y="879" type="curve" smooth="yes"/>
      <point x="-271" y="879"/>
      <point x="-252" y="841"/>
      <point x="-134" y="608" type="curve"/>
    </contour>
    <contour>
      <point x="-124" y="608" type="line"/>
      <point x="-130" y="620" type="line"/>
      <point x="-143" y="620" type="line"/>
      <point x="-252" y="760"/>
      <point x="-297" y="809"/>
      <point x="-376" y="809" type="curve" smooth="yes"/>
      <point x="-393" y="809"/>
      <point x="-419" y="807"/>
      <point x="-479" y="795" type="curve"/>
      <point x="-480" y="788" type="line"/>
      <point x="-438" y="711" type="line"/>
      <point x="-401" y="719"/>
      <point x="-369" y="724"/>
      <point x="-337" y="724" type="curve" smooth="yes"/>
      <point x="-297" y="724"/>
      <point x="-256" y="709"/>
      <point x="-179" y="608" type="curve"/>
    </contour>
  </outline>
</glyph>
<glyph name="dHalant" format="2">
  <unicode hex="094D"/>
  <outline>
    <contour>
      <point x="-216" y="-41" type="line"/>
      <point x="-179" y="-120" type="line"/>
      <point x="-168" y="-119"/>
      <point x="-147" y="-113"/>
      <point x="-115" y="-113" type="curve" smooth="yes"/>
      <point x="-42" y="-113"/>
      <point x="-10" y="-141"/>
      <point x="119" y="-286" type="curve"/>
      <point x="126" y="-286" type="line"/>
      <point x="160" y="-248" type="line"/>
      <point x="85" y="-177"/>
      <point x="-4" y="-98"/>
      <point x="-30" y="-78" type="curve" smooth="yes"/>
      <point x="-71" y="-46"/>
      <point x="-112" y="-29"/>
      <point x="-156" y="-29" type="curve" smooth="yes"/>
      <point x="-172" y="-29"/>
      <point x="-193" y="-31"/>
      <point x="-214" y="-35" type="curve"/>
    </contour>
  </outline>
</glyph>
<glyph name="dFour" format="2">
  <advance width="552"/>
  <unicode hex="096A"/>
  <outline>
    <contour>
      <point x="299" y="26" type="curve" smooth="yes"/>
      <point x="367" y="26"/>
      <point x="426" y="77"/>
      <point x="426" y="144" type="curve" smooth="yes"/>
      <point x="426" y="198"/>
      <point x="395" y="249"/>
      <point x="312" y="332" type="curve" smooth="yes"/>
      <point x="276" y="368"/>
      <point x="149" y="482"/>
      <point x="29" y="586" type="curve"/>
      <point x="-20" y="539" type="line"/>
      <point x="119" y="435"/>
      <point x="171" y="394"/>
      <point x="275" y="299" type="curve" smooth="yes"/>
      <point x="345" y="232"/>
      <point x="359" y="197"/>
      <point x="359" y="171" type="curve" smooth="yes"/>
      <point x="359" y="126"/>
      <point x="314" y="90"/>
      <point x="266" y="90" type="curve" smooth="yes"/>
      <point x="230" y="90"/>
      <point x="205" y="111"/>
      <point x="205" y="142" type="curve" smooth="yes"/>
      <point x="205" y="175"/>
      <point x="236" y="225"/>
      <point x="304" y="297" type="curve" smooth="yes"/>
      <point x="355" y="351"/>
      <point x="452" y="443"/>
      <point x="537" y="521" type="curve"/>
      <point x="499" y="592" type="line"/>
      <point x="492" y="592" type="line"/>
      <point x="373" y="481"/>
      <point x="288" y="400"/>
      <point x="245" y="355" type="curve" smooth="yes"/>
      <point x="168" y="275"/>
      <point x="140" y="220"/>
      <point x="140" y="173" type="curve" smooth="yes"/>
      <point x="140" y="97"/>
      <point x="215" y="26"/>
    </contour>
  </outline>
</glyph>
<glyph name="dDot" format="2">
  <advance width="259"/>
  <unicode hex="0971"/>
  <outline>
    <contour>
      <point x="129" y="652" type="line"/>
      <point x="60" y="582" type="line"/>
      <point x="129" y="514" type="line"/>
      <point x="199" y="582" type="line"/>
    </contour>
  </outline>
  <guideline angle="0" x="0" y="582"/>
</glyph>
<glyph name="dSiddhirastu" format="2">
  <advance width="716"/>
  <unicode hex="A8FC"/>
  <outline>
    <contour>
      <point x="478" y="112" type="curve" smooth="yes"/>
      <point x="607" y="112"/>
      <point x="664" y="196"/>
      <point x="664" y="270" type="curve" smooth="yes"/>
      <point x="664" y="365"/>
      <point x="570" y="465"/>
      <point x="473" y="465" type="curve" smooth="yes"/>
      <point x="403" y="465"/>
      <point x="348" y="413"/>
      <point x="348" y="351" type="curve" smooth="yes"/>
      <point x="348" y="300"/>
      <point x="386" y="254"/>
      <point x="448" y="254" type="curve" smooth="yes"/>
      <point x="456" y="254"/>
      <point x="460" y="254"/>
      <point x="473" y="256" type="curve"/>
      <point x="473" y="267" type="line"/>
      <point x="443" y="282"/>
      <point x="425" y="298"/>
      <point x="425" y="325" type="curve" smooth="yes"/>
      <point x="425" y="367"/>
      <point x="469" y="394"/>
      <point x="511" y="394" type="curve" smooth="yes"/>
      <point x="554" y="394"/>
      <point x="597" y="366"/>
      <point x="597" y="306" type="curve" smooth="yes"/>
      <point x="597" y="256"/>
      <point x="567" y="189"/>
      <point x="458" y="189" type="curve" smooth="yes"/>
      <point x="265" y="189"/>
      <point x="197" y="401"/>
      <point x="40" y="430" type="curve"/>
      <point x="30" y="396" type="line"/>
      <point x="186" y="356"/>
      <point x="257" y="112"/>
    </contour>
  </outline>
</glyph>
<glyph name="dBBha" format="2">
  <advance width="987"/>
  <outline>
    <component base="dBha" xOffset="271"/>
    <contour>
      <point x="41" y="291" type="curve" smooth="yes"/>
      <point x="41" y="214"/>
      <point x="111" y="98"/>
      <point x="256" y="98" type="curve" smooth="yes"/>
      <point x="356" y="98"/>
      <point x="450" y="154"/>
      <point x="450" y="247" type="curve" smooth="yes"/>
      <point x="450" y="331"/>
      <point x="374" y="437"/>
      <point x="234" y="437" type="curve" smooth="yes"/>
      <point x="129" y="437"/>
      <point x="41" y="378"/>
    </contour>
    <contour>
      <point x="379" y="545" type="line"/>
      <point x="408" y="620" type="line"/>
      <point x="-28" y="620" type="line"/>
      <point x="-28" y="610" type="line"/>
      <point x="6" y="545" type="line"/>
    </contour>
    <contour>
      <point x="112" y="252" type="curve" smooth="yes"/>
      <point x="112" y="288"/>
      <point x="134" y="319"/>
      <point x="164" y="337" type="curve"/>
      <point x="294" y="174" type="line"/>
      <point x="272" y="167"/>
      <point x="249" y="162"/>
      <point x="226" y="162" type="curve" smooth="yes"/>
      <point x="162" y="162"/>
      <point x="112" y="199"/>
    </contour>
    <contour>
      <point x="268" y="364" type="curve" smooth="yes"/>
      <point x="329" y="364"/>
      <point x="384" y="343"/>
      <point x="384" y="285" type="curve" smooth="yes"/>
      <point x="384" y="249"/>
      <point x="364" y="216"/>
      <point x="333" y="195" type="curve"/>
      <point x="205" y="355" type="line"/>
      <point x="225" y="362"/>
      <point x="248" y="364"/>
    </contour>
  </outline>
</glyph>
<glyph name="dBhRYa" format="2">
  <advance width="1041"/>
  <outline>
    <contour>
      <point x="301" y="159" type="curve" smooth="yes"/>
      <point x="330" y="159"/>
      <point x="331" y="191"/>
      <point x="344" y="310" type="curve" smooth="yes"/>
      <point x="349" y="353"/>
      <point x="348" y="406"/>
      <point x="348" y="430" type="curve" smooth="yes"/>
      <point x="348" y="523"/>
      <point x="260" y="633"/>
      <point x="159" y="633" type="curve" smooth="yes"/>
      <point x="108" y="633"/>
      <point x="53" y="600"/>
      <point x="53" y="538" type="curve" smooth="yes"/>
      <point x="53" y="477"/>
      <point x="98" y="422"/>
      <point x="175" y="422" type="curve"/>
      <point x="176" y="422"/>
      <point x="181" y="422"/>
      <point x="195" y="424" type="curve"/>
      <point x="195" y="435" type="line"/>
      <point x="165" y="451"/>
      <point x="131" y="472"/>
      <point x="131" y="507" type="curve" smooth="yes"/>
      <point x="131" y="541"/>
      <point x="163" y="563"/>
      <point x="196" y="563" type="curve" smooth="yes"/>
      <point x="242" y="563"/>
      <point x="267" y="540"/>
      <point x="267" y="457" type="curve" smooth="yes"/>
      <point x="267" y="387"/>
      <point x="263" y="366"/>
      <point x="249" y="254" type="curve"/>
      <point x="569" y="254" type="line"/>
      <point x="569" y="328" type="line"/>
      <point x="188" y="328" type="line" smooth="yes"/>
      <point x="170" y="328"/>
      <point x="163" y="317"/>
      <point x="163" y="304" type="curve" smooth="yes"/>
      <point x="163" y="257"/>
      <point x="257" y="159"/>
    </contour>
    <contour>
      <point x="603" y="234" type="line"/>
      <point x="572" y="308" type="line"/>
      <point x="286" y="59" type="line"/>
      <point x="349" y="7" type="line"/>
    </contour>
    <contour>
      <point x="748" y="136" type="curve" smooth="yes"/>
      <point x="793" y="136"/>
      <point x="840" y="151"/>
      <point x="879" y="182" type="curve"/>
      <point x="881" y="283" type="line"/>
      <point x="821" y="229"/>
      <point x="760" y="199"/>
      <point x="709" y="199" type="curve" smooth="yes"/>
      <point x="641" y="199"/>
      <point x="588" y="250"/>
      <point x="586" y="310" type="curve"/>
      <point x="683" y="337"/>
      <point x="722" y="375"/>
      <point x="722" y="426" type="curve" smooth="yes"/>
      <point x="722" y="463"/>
      <point x="702" y="503"/>
      <point x="667" y="562" type="curve"/>
      <point x="610" y="563" type="line"/>
      <point x="638" y="520"/>
      <point x="650" y="491"/>
      <point x="650" y="469" type="curve" smooth="yes"/>
      <point x="650" y="424"/>
      <point x="603" y="396"/>
      <point x="499" y="371" type="curve"/>
      <point x="513" y="252"/>
      <point x="623" y="136"/>
    </contour>
    <contour>
      <point x="954" y="-10" type="line"/>
      <point x="952" y="591" type="line"/>
      <point x="868" y="591" type="line"/>
      <point x="864" y="42" type="line"/>
      <point x="944" y="-10" type="line"/>
    </contour>
    <contour>
      <point x="1069" y="545" type="line"/>
      <point x="1069" y="555" type="line"/>
      <point x="1035" y="620" type="line"/>
      <point x="369" y="620" type="line"/>
      <point x="369" y="610" type="line"/>
      <point x="403" y="545" type="line"/>
    </contour>
  </outline>
</glyph>
<glyph name="dDBa" format="2">
  <advance width="517"/>
  <outline>
    <contour>
      <point x="535" y="-170" type="line"/>
      <point x="589" y="-135" type="line"/>
      <point x="369" y="176" type="line"/>
      <point x="348" y="140"/>
      <point x="300" y="133"/>
      <point x="266" y="133" type="curve" smooth="yes"/>
      <point x="196" y="133"/>
      <point x="130" y="183"/>
      <point x="130" y="278" type="curve" smooth="yes"/>
      <point x="130" y="346"/>
      <point x="185" y="379"/>
      <point x="270" y="379" type="curve" smooth="yes"/>
      <point x="411" y="379" type="line"/>
      <point x="423" y="387" type="line"/>
      <point x="423" y="439"/>
      <point x="422" y="507"/>
      <point x="421" y="582" type="curve"/>
      <point x="340" y="582" type="line"/>
      <point x="340" y="454" type="line"/>
      <point x="265" y="454" type="line" smooth="yes"/>
      <point x="139" y="454"/>
      <point x="55" y="425"/>
      <point x="55" y="321" type="curve" smooth="yes"/>
      <point x="55" y="183"/>
      <point x="179" y="68"/>
      <point x="319" y="68" type="curve" smooth="yes"/>
      <point x="355" y="68"/>
      <point x="384" y="71"/>
      <point x="407" y="82" type="curve" smooth="yes"/>
      <point x="450" y="103"/>
      <point x="471" y="143"/>
      <point x="471" y="168" type="curve" smooth="yes"/>
      <point x="471" y="212"/>
      <point x="394" y="257"/>
      <point x="349" y="257" type="curve" smooth="yes"/>
      <point x="328" y="257"/>
      <point x="314" y="247"/>
      <point x="314" y="225" type="curve" smooth="yes"/>
      <point x="314" y="200"/>
      <point x="332" y="152"/>
      <point x="398" y="43" type="curve" smooth="yes"/>
      <point x="526" y="-170" type="line"/>
    </contour>
    <contour>
      <point x="261" y="-149" type="curve" smooth="yes"/>
      <point x="318" y="-149"/>
      <point x="412" y="-127"/>
      <point x="436" y="13" type="curve"/>
      <point x="375" y="95" type="line"/>
      <point x="371" y="-21"/>
      <point x="294" y="-87"/>
      <point x="219" y="-87" type="curve" smooth="yes"/>
      <point x="185" y="-87"/>
      <point x="148" y="-73"/>
      <point x="148" y="-29" type="curve" smooth="yes"/>
      <point x="148" y="29"/>
      <point x="219" y="76"/>
      <point x="289" y="72" type="curve"/>
      <point x="192" y="124" type="line"/>
      <point x="105" y="96"/>
      <point x="79" y="58"/>
      <point x="79" y="11" type="curve" smooth="yes"/>
      <point x="79" y="-60"/>
      <point x="136" y="-149"/>
    </contour>
    <contour>
      <point x="328" y="-51" type="line"/>
      <point x="217" y="69" type="line"/>
      <point x="179" y="48" type="line"/>
      <point x="295" y="-76" type="line"/>
    </contour>
    <contour>
      <point x="550" y="545" type="line"/>
      <point x="550" y="555" type="line"/>
      <point x="516" y="620" type="line"/>
      <point x="-28" y="620" type="line"/>
      <point x="-28" y="610" type="line"/>
      <point x="6" y="545" type="line"/>
    </contour>
  </outline>
</glyph>
<glyph name="dDRa" format="2">
  <advance width="527"/>
  <outline>
    <contour>
      <point x="487" y="-98" type="line"/>
      <point x="539" y="-65" type="line"/>
      <point x="376" y="162" type="line"/>
      <point x="347" y="130"/>
      <point x="299" y="124"/>
      <point x="270" y="124" type="curve" smooth="yes"/>
      <point x="200" y="124"/>
      <point x="130" y="178"/>
      <point x="130" y="273" type="curve" smooth="yes"/>
      <point x="130" y="341"/>
      <point x="185" y="374"/>
      <point x="270" y="374" type="curve" smooth="yes"/>
      <point x="411" y="374" type="line"/>
      <point x="423" y="382" type="line"/>
      <point x="423" y="434"/>
      <point x="422" y="508"/>
      <point x="421" y="570" type="curve"/>
      <point x="340" y="570" type="line"/>
      <point x="340" y="449" type="line"/>
      <point x="265" y="449" type="line" smooth="yes"/>
      <point x="139" y="449"/>
      <point x="55" y="420"/>
      <point x="55" y="316" type="curve" smooth="yes"/>
      <point x="55" y="194"/>
      <point x="167" y="58"/>
      <point x="329" y="58" type="curve" smooth="yes"/>
      <point x="439" y="58"/>
      <point x="475" y="126"/>
      <point x="475" y="159" type="curve" smooth="yes"/>
      <point x="475" y="206"/>
      <point x="397" y="250"/>
      <point x="352" y="250" type="curve" smooth="yes"/>
      <point x="331" y="250"/>
      <point x="317" y="240"/>
      <point x="317" y="218" type="curve" smooth="yes"/>
      <point x="317" y="195"/>
      <point x="328" y="164"/>
      <point x="383" y="67" type="curve" smooth="yes"/>
      <point x="478" y="-98" type="line"/>
    </contour>
    <contour>
      <point x="395" y="64" type="line"/>
      <point x="395" y="94" type="line"/>
      <point x="267" y="94" type="line"/>
      <point x="267" y="63" type="line"/>
      <point x="102" y="-46" type="line"/>
      <point x="160" y="-104" type="line"/>
    </contour>
    <contour>
      <point x="555" y="545" type="line"/>
      <point x="555" y="555" type="line"/>
      <point x="521" y="620" type="line"/>
      <point x="-28" y="620" type="line"/>
      <point x="-28" y="610" type="line"/>
      <point x="6" y="545" type="line"/>
    </contour>
  </outline>
</glyph>
<glyph name="dDVYa" format="2">
  <advance width="1013"/>
  <outline>
    <contour>
      <point x="535" y="-170" type="line"/>
      <point x="589" y="-135" type="line"/>
      <point x="368" y="177" type="line"/>
      <point x="347" y="139"/>
      <point x="300" y="133"/>
      <point x="266" y="133" type="curve" smooth="yes"/>
      <point x="196" y="133"/>
      <point x="130" y="183"/>
      <point x="130" y="278" type="curve" smooth="yes"/>
      <point x="130" y="346"/>
      <point x="185" y="379"/>
      <point x="270" y="379" type="curve" smooth="yes"/>
      <point x="596" y="379" type="line" smooth="yes"/>
      <point x="661" y="379"/>
      <point x="668" y="362"/>
      <point x="668" y="348" type="curve" smooth="yes"/>
      <point x="668" y="308"/>
      <point x="620" y="278"/>
      <point x="525" y="254" type="curve"/>
      <point x="545" y="142"/>
      <point x="629" y="55"/>
      <point x="730" y="55" type="curve" smooth="yes"/>
      <point x="765" y="55"/>
      <point x="803" y="65"/>
      <point x="835" y="85" type="curve"/>
      <point x="851" y="77" type="line"/>
      <point x="852" y="194" type="line"/>
      <point x="798" y="145"/>
      <point x="742" y="118"/>
      <point x="699" y="118" type="curve" smooth="yes"/>
      <point x="650" y="118"/>
      <point x="612" y="153"/>
      <point x="611" y="194" type="curve"/>
      <point x="702" y="222"/>
      <point x="738" y="257"/>
      <point x="738" y="307" type="curve" smooth="yes"/>
      <point x="738" y="361"/>
      <point x="693" y="454"/>
      <point x="570" y="454" type="curve" smooth="yes"/>
      <point x="265" y="454" type="line" smooth="yes"/>
      <point x="139" y="454"/>
      <point x="55" y="425"/>
      <point x="55" y="321" type="curve" smooth="yes"/>
      <point x="55" y="188"/>
      <point x="176" y="66"/>
      <point x="318" y="66" type="curve" smooth="yes"/>
      <point x="441" y="66"/>
      <point x="471" y="140"/>
      <point x="471" y="168" type="curve" smooth="yes"/>
      <point x="471" y="212"/>
      <point x="394" y="257"/>
      <point x="349" y="257" type="curve" smooth="yes"/>
      <point x="328" y="257"/>
      <point x="314" y="247"/>
      <point x="314" y="225" type="curve" smooth="yes"/>
      <point x="314" y="198"/>
      <point x="333" y="154"/>
      <point x="382" y="71" type="curve" smooth="yes"/>
      <point x="526" y="-170" type="line"/>
    </contour>
    <contour>
      <point x="272" y="-131" type="curve" smooth="yes"/>
      <point x="325" y="-131"/>
      <point x="406" y="-115"/>
      <point x="441" y="9" type="curve"/>
      <point x="381" y="92" type="line"/>
      <point x="361" y="-39"/>
      <point x="277" y="-67"/>
      <point x="228" y="-67" type="curve" smooth="yes"/>
      <point x="200" y="-67"/>
      <point x="169" y="-58"/>
      <point x="169" y="-22" type="curve" smooth="yes"/>
      <point x="169" y="30"/>
      <point x="231" y="64"/>
      <point x="282" y="75" type="curve"/>
      <point x="192" y="124" type="line"/>
      <point x="121" y="91"/>
      <point x="98" y="60"/>
      <point x="98" y="18" type="curve" smooth="yes"/>
      <point x="98" y="-49"/>
      <point x="154" y="-131"/>
    </contour>
    <contour>
      <point x="423" y="407" type="line"/>
      <point x="421" y="591" type="line"/>
      <point x="340" y="591" type="line"/>
      <point x="340" y="407" type="line"/>
    </contour>
    <contour>
      <point x="1041" y="545" type="line"/>
      <point x="1041" y="555" type="line"/>
      <point x="1007" y="620" type="line"/>
      <point x="-28" y="620" type="line"/>
      <point x="-28" y="610" type="line"/>
      <point x="6" y="545" type="line"/>
    </contour>
    <contour>
      <point x="926" y="-45" type="line"/>
      <point x="924" y="591" type="line"/>
      <point x="840" y="591" type="line"/>
      <point x="836" y="7" type="line"/>
      <point x="916" y="-45" type="line"/>
    </contour>
  </outline>
</glyph>
<glyph name="dDdBha" format="2">
  <advance width="555"/>
  <outline>
    <contour>
      <point x="346" y="80" type="curve" smooth="yes"/>
      <point x="434" y="80"/>
      <point x="509" y="117"/>
      <point x="509" y="194" type="curve" smooth="yes"/>
      <point x="509" y="263"/>
      <point x="433" y="335"/>
      <point x="378" y="335" type="curve" smooth="yes"/>
      <point x="346" y="335"/>
      <point x="254" y="313"/>
      <point x="230" y="313" type="curve" smooth="yes"/>
      <point x="209" y="313"/>
      <point x="184" y="333"/>
      <point x="184" y="365" type="curve" smooth="yes"/>
      <point x="184" y="397"/>
      <point x="207" y="410"/>
      <point x="249" y="410" type="curve" smooth="yes"/>
      <point x="439" y="410" type="line"/>
      <point x="451" y="418" type="line"/>
      <point x="451" y="469"/>
      <point x="451" y="523"/>
      <point x="450" y="583" type="curve"/>
      <point x="370" y="583" type="line"/>
      <point x="370" y="482" type="line"/>
      <point x="231" y="482" type="line" smooth="yes"/>
      <point x="149" y="482"/>
      <point x="112" y="451"/>
      <point x="112" y="401" type="curve" smooth="yes"/>
      <point x="112" y="327"/>
      <point x="201" y="243"/>
      <point x="264" y="243" type="curve" smooth="yes"/>
      <point x="298" y="243"/>
      <point x="371" y="264"/>
      <point x="407" y="264" type="curve" smooth="yes"/>
      <point x="431" y="264"/>
      <point x="441" y="252"/>
      <point x="441" y="227" type="curve" smooth="yes"/>
      <point x="441" y="201"/>
      <point x="432" y="152"/>
      <point x="320" y="152" type="curve" smooth="yes"/>
      <point x="198" y="152"/>
      <point x="138" y="210"/>
      <point x="86" y="298" type="curve"/>
      <point x="49" y="278" type="line"/>
      <point x="116" y="154"/>
      <point x="218" y="80"/>
    </contour>
    <contour>
      <point x="208" y="-246" type="curve" smooth="yes"/>
      <point x="235" y="-246"/>
      <point x="237" y="-205"/>
      <point x="243" y="-146" type="curve"/>
      <point x="246" y="-106"/>
      <point x="248" y="-75"/>
      <point x="248" y="-49" type="curve" smooth="yes"/>
      <point x="248" y="42"/>
      <point x="179" y="114"/>
      <point x="110" y="114" type="curve" smooth="yes"/>
      <point x="70" y="114"/>
      <point x="30" y="92"/>
      <point x="30" y="46" type="curve" smooth="yes"/>
      <point x="30" y="-9"/>
      <point x="79" y="-37"/>
      <point x="120" y="-37" type="curve" smooth="yes"/>
      <point x="125" y="-37"/>
      <point x="128" y="-37"/>
      <point x="135" y="-36" type="curve"/>
      <point x="135" y="-28" type="line"/>
      <point x="110" y="-17"/>
      <point x="94" y="2"/>
      <point x="94" y="23" type="curve" smooth="yes"/>
      <point x="94" y="44"/>
      <point x="114" y="57"/>
      <point x="134" y="57" type="curve" smooth="yes"/>
      <point x="170" y="57"/>
      <point x="176" y="16"/>
      <point x="176" y="-30" type="curve" smooth="yes"/>
      <point x="176" y="-44"/>
      <point x="173" y="-109"/>
      <point x="169" y="-159" type="curve"/>
      <point x="433" y="-159" type="line"/>
      <point x="433" y="-93" type="line"/>
      <point x="110" y="-93" type="line" smooth="yes"/>
      <point x="92" y="-93"/>
      <point x="85" y="-104"/>
      <point x="85" y="-116" type="curve" smooth="yes"/>
      <point x="85" y="-158"/>
      <point x="169" y="-246"/>
    </contour>
    <contour>
      <point x="475" y="-340" type="line"/>
      <point x="471" y="156" type="line"/>
      <point x="397" y="156" type="line"/>
      <point x="395" y="-295" type="line"/>
      <point x="466" y="-340" type="line"/>
    </contour>
    <contour>
      <point x="583" y="545" type="line"/>
      <point x="583" y="555" type="line"/>
      <point x="549" y="620" type="line"/>
      <point x="-28" y="620" type="line"/>
      <point x="-28" y="610" type="line"/>
      <point x="6" y="545" type="line"/>
    </contour>
  </outline>
  <guideline angle="90" x="461" y="0"/>
</glyph>
<glyph name="dDdDda" format="2">
  <advance width="540"/>
  <outline>
    <contour>
      <point x="331" y="80" type="curve" smooth="yes"/>
      <point x="415" y="80"/>
      <point x="494" y="115"/>
      <point x="494" y="194" type="curve" smooth="yes"/>
      <point x="494" y="263"/>
      <point x="418" y="335"/>
      <point x="363" y="335" type="curve" smooth="yes"/>
      <point x="331" y="335"/>
      <point x="239" y="313"/>
      <point x="215" y="313" type="curve" smooth="yes"/>
      <point x="194" y="313"/>
      <point x="169" y="333"/>
      <point x="169" y="365" type="curve" smooth="yes"/>
      <point x="169" y="397"/>
      <point x="192" y="410"/>
      <point x="234" y="410" type="curve" smooth="yes"/>
      <point x="424" y="410" type="line"/>
      <point x="436" y="418" type="line"/>
      <point x="436" y="469"/>
      <point x="436" y="523"/>
      <point x="435" y="583" type="curve"/>
      <point x="355" y="583" type="line"/>
      <point x="355" y="482" type="line"/>
      <point x="216" y="482" type="line" smooth="yes"/>
      <point x="134" y="482"/>
      <point x="97" y="451"/>
      <point x="97" y="401" type="curve" smooth="yes"/>
      <point x="97" y="327"/>
      <point x="186" y="243"/>
      <point x="249" y="243" type="curve" smooth="yes"/>
      <point x="283" y="243"/>
      <point x="356" y="264"/>
      <point x="392" y="264" type="curve" smooth="yes"/>
      <point x="416" y="264"/>
      <point x="426" y="252"/>
      <point x="426" y="227" type="curve" smooth="yes"/>
      <point x="426" y="201"/>
      <point x="417" y="152"/>
      <point x="305" y="152" type="curve" smooth="yes"/>
      <point x="183" y="152"/>
      <point x="123" y="210"/>
      <point x="71" y="298" type="curve"/>
      <point x="33" y="277" type="line"/>
      <point x="103" y="148"/>
      <point x="200" y="80"/>
    </contour>
    <contour>
      <point x="327" y="-348" type="curve" smooth="yes"/>
      <point x="453" y="-348"/>
      <point x="485" y="-283"/>
      <point x="485" y="-239" type="curve" smooth="yes"/>
      <point x="485" y="-174"/>
      <point x="411" y="-105"/>
      <point x="358" y="-105" type="curve" smooth="yes"/>
      <point x="326" y="-105"/>
      <point x="237" y="-127"/>
      <point x="212" y="-127" type="curve" smooth="yes"/>
      <point x="194" y="-127"/>
      <point x="175" y="-112"/>
      <point x="175" y="-84" type="curve" smooth="yes"/>
      <point x="175" y="-53"/>
      <point x="197" y="-39"/>
      <point x="238" y="-39" type="curve" smooth="yes"/>
      <point x="422" y="-39" type="line"/>
      <point x="434" y="-31" type="line"/>
      <point x="434" y="13"/>
      <point x="434" y="63"/>
      <point x="433" y="131" type="curve"/>
      <point x="356" y="131" type="line"/>
      <point x="356" y="29" type="line"/>
      <point x="220" y="29" type="line" smooth="yes"/>
      <point x="141" y="29"/>
      <point x="105" y="0"/>
      <point x="105" y="-49" type="curve" smooth="yes"/>
      <point x="105" y="-119"/>
      <point x="186" y="-195"/>
      <point x="245" y="-195" type="curve" smooth="yes"/>
      <point x="279" y="-195"/>
      <point x="350" y="-174"/>
      <point x="386" y="-174" type="curve" smooth="yes"/>
      <point x="409" y="-174"/>
      <point x="419" y="-185"/>
      <point x="419" y="-208" type="curve" smooth="yes"/>
      <point x="419" y="-232"/>
      <point x="410" y="-278"/>
      <point x="302" y="-278" type="curve" smooth="yes"/>
      <point x="188" y="-278"/>
      <point x="135" y="-222"/>
      <point x="83" y="-136" type="curve"/>
      <point x="46" y="-156" type="line"/>
      <point x="115" y="-281"/>
      <point x="204" y="-348"/>
    </contour>
    <contour>
      <point x="568" y="545" type="line"/>
      <point x="568" y="555" type="line"/>
      <point x="534" y="620" type="line"/>
      <point x="-28" y="620" type="line"/>
      <point x="-28" y="610" type="line"/>
      <point x="6" y="545" type="line"/>
    </contour>
  </outline>
  <guideline angle="90" x="446" y="0"/>
</glyph>
<glyph name="dDdDdha" format="2">
  <advance width="540"/>
  <outline>
    <contour>
      <point x="331" y="80" type="curve" smooth="yes"/>
      <point x="409" y="80"/>
      <point x="494" y="111"/>
      <point x="494" y="194" type="curve" smooth="yes"/>
      <point x="494" y="263"/>
      <point x="418" y="335"/>
      <point x="363" y="335" type="curve" smooth="yes"/>
      <point x="331" y="335"/>
      <point x="239" y="313"/>
      <point x="215" y="313" type="curve" smooth="yes"/>
      <point x="194" y="313"/>
      <point x="169" y="333"/>
      <point x="169" y="365" type="curve" smooth="yes"/>
      <point x="169" y="397"/>
      <point x="192" y="410"/>
      <point x="234" y="410" type="curve" smooth="yes"/>
      <point x="424" y="410" type="line"/>
      <point x="436" y="418" type="line"/>
      <point x="436" y="469"/>
      <point x="436" y="523"/>
      <point x="435" y="583" type="curve"/>
      <point x="355" y="583" type="line"/>
      <point x="355" y="482" type="line"/>
      <point x="216" y="482" type="line" smooth="yes"/>
      <point x="134" y="482"/>
      <point x="97" y="451"/>
      <point x="97" y="401" type="curve" smooth="yes"/>
      <point x="97" y="327"/>
      <point x="186" y="243"/>
      <point x="249" y="243" type="curve" smooth="yes"/>
      <point x="283" y="243"/>
      <point x="356" y="264"/>
      <point x="392" y="264" type="curve" smooth="yes"/>
      <point x="416" y="264"/>
      <point x="426" y="252"/>
      <point x="426" y="227" type="curve" smooth="yes"/>
      <point x="426" y="201"/>
      <point x="417" y="152"/>
      <point x="305" y="152" type="curve" smooth="yes"/>
      <point x="183" y="152"/>
      <point x="123" y="210"/>
      <point x="71" y="298" type="curve"/>
      <point x="33" y="277" type="line"/>
      <point x="103" y="148"/>
      <point x="200" y="80"/>
    </contour>
    <contour>
      <point x="344" y="-348" type="curve" smooth="yes"/>
      <point x="434" y="-348"/>
      <point x="488" y="-295"/>
      <point x="488" y="-229" type="curve" smooth="yes"/>
      <point x="488" y="-128"/>
      <point x="402" y="-95"/>
      <point x="355" y="-95" type="curve" smooth="yes"/>
      <point x="302" y="-95"/>
      <point x="251" y="-132"/>
      <point x="251" y="-191" type="curve" smooth="yes"/>
      <point x="251" y="-221"/>
      <point x="260" y="-252"/>
      <point x="274" y="-284" type="curve"/>
      <point x="314" y="-291" type="line"/>
      <point x="306" y="-275"/>
      <point x="306" y="-266"/>
      <point x="306" y="-254" type="curve" smooth="yes"/>
      <point x="306" y="-199"/>
      <point x="339" y="-157"/>
      <point x="388" y="-157" type="curve" smooth="yes"/>
      <point x="414" y="-157"/>
      <point x="437" y="-175"/>
      <point x="437" y="-202" type="curve" smooth="yes"/>
      <point x="437" y="-239"/>
      <point x="392" y="-279"/>
      <point x="318" y="-279" type="curve" smooth="yes"/>
      <point x="220" y="-279"/>
      <point x="148" y="-227"/>
      <point x="148" y="-141" type="curve" smooth="yes"/>
      <point x="148" y="-74"/>
      <point x="190" y="-39"/>
      <point x="268" y="-39" type="curve" smooth="yes"/>
      <point x="422" y="-39" type="line"/>
      <point x="434" y="-31" type="line"/>
      <point x="434" y="12"/>
      <point x="433" y="88"/>
      <point x="432" y="136" type="curve"/>
      <point x="356" y="117" type="line"/>
      <point x="356" y="29" type="line"/>
      <point x="261" y="29" type="line" smooth="yes"/>
      <point x="150" y="29"/>
      <point x="78" y="-2"/>
      <point x="78" y="-93" type="curve" smooth="yes"/>
      <point x="78" y="-234"/>
      <point x="213" y="-348"/>
    </contour>
    <contour>
      <point x="568" y="545" type="line"/>
      <point x="568" y="555" type="line"/>
      <point x="534" y="620" type="line"/>
      <point x="-28" y="620" type="line"/>
      <point x="-28" y="610" type="line"/>
      <point x="6" y="545" type="line"/>
    </contour>
  </outline>
  <guideline angle="0" x="0" y="-348"/>
  <guideline angle="90" x="436" y="0"/>
</glyph>
<glyph name="dDdPa" format="2">
  <advance width="548"/>
  <outline>
    <contour>
      <point x="331" y="80" type="curve" smooth="yes"/>
      <point x="493" y="80"/>
      <point x="494" y="184"/>
      <point x="494" y="194" type="curve" smooth="yes"/>
      <point x="494" y="263"/>
      <point x="418" y="335"/>
      <point x="363" y="335" type="curve" smooth="yes"/>
      <point x="331" y="335"/>
      <point x="239" y="313"/>
      <point x="215" y="313" type="curve" smooth="yes"/>
      <point x="194" y="313"/>
      <point x="169" y="333"/>
      <point x="169" y="365" type="curve" smooth="yes"/>
      <point x="169" y="397"/>
      <point x="192" y="410"/>
      <point x="234" y="410" type="curve" smooth="yes"/>
      <point x="424" y="410" type="line"/>
      <point x="436" y="418" type="line"/>
      <point x="436" y="469"/>
      <point x="436" y="523"/>
      <point x="435" y="583" type="curve"/>
      <point x="355" y="583" type="line"/>
      <point x="355" y="482" type="line"/>
      <point x="216" y="482" type="line" smooth="yes"/>
      <point x="134" y="482"/>
      <point x="97" y="451"/>
      <point x="97" y="401" type="curve" smooth="yes"/>
      <point x="97" y="327"/>
      <point x="186" y="243"/>
      <point x="249" y="243" type="curve" smooth="yes"/>
      <point x="283" y="243"/>
      <point x="356" y="264"/>
      <point x="392" y="264" type="curve" smooth="yes"/>
      <point x="416" y="264"/>
      <point x="426" y="252"/>
      <point x="426" y="227" type="curve" smooth="yes"/>
      <point x="426" y="201"/>
      <point x="417" y="152"/>
      <point x="305" y="152" type="curve" smooth="yes"/>
      <point x="183" y="152"/>
      <point x="123" y="210"/>
      <point x="71" y="298" type="curve"/>
      <point x="34" y="278" type="line"/>
      <point x="101" y="154"/>
      <point x="203" y="80"/>
    </contour>
    <contour>
      <point x="278" y="-149" type="curve" smooth="yes"/>
      <point x="315" y="-149"/>
      <point x="334" y="-142"/>
      <point x="382" y="-112" type="curve"/>
      <point x="383" y="-12" type="line"/>
      <point x="318" y="-64"/>
      <point x="277" y="-90"/>
      <point x="239" y="-90" type="curve" smooth="yes"/>
      <point x="210" y="-90"/>
      <point x="183" y="-71"/>
      <point x="183" y="-13" type="curve" smooth="yes"/>
      <point x="182" y="157" type="line"/>
      <point x="106" y="219" type="line"/>
      <point x="106" y="191"/>
      <point x="105" y="76"/>
      <point x="105" y="55" type="curve" smooth="yes"/>
      <point x="105" y="42"/>
      <point x="105" y="22"/>
      <point x="106" y="6" type="curve" smooth="yes"/>
      <point x="108" y="-55"/>
      <point x="189" y="-149"/>
    </contour>
    <contour>
      <point x="441" y="-300" type="line"/>
      <point x="438" y="124" type="line"/>
      <point x="364" y="124" type="line"/>
      <point x="364" y="-78" type="line"/>
      <point x="362" y="-90" type="line"/>
      <point x="361" y="-255" type="line"/>
      <point x="432" y="-300" type="line"/>
    </contour>
    <contour>
      <point x="576" y="545" type="line"/>
      <point x="576" y="555" type="line"/>
      <point x="542" y="620" type="line"/>
      <point x="-28" y="620" type="line"/>
      <point x="-28" y="610" type="line"/>
      <point x="6" y="545" type="line"/>
    </contour>
  </outline>
  <guideline angle="0" x="0" y="-310"/>
  <guideline angle="33.9366" x="0" y="-124"/>
</glyph>
<glyph name="dDdSa" format="2">
  <advance width="574"/>
  <outline>
    <contour>
      <point x="352" y="80" type="curve" smooth="yes"/>
      <point x="514" y="80"/>
      <point x="515" y="193"/>
      <point x="515" y="194" type="curve"/>
      <point x="515" y="263"/>
      <point x="439" y="335"/>
      <point x="384" y="335" type="curve" smooth="yes"/>
      <point x="353" y="335"/>
      <point x="259" y="313"/>
      <point x="236" y="313" type="curve" smooth="yes"/>
      <point x="215" y="313"/>
      <point x="190" y="333"/>
      <point x="190" y="365" type="curve" smooth="yes"/>
      <point x="190" y="397"/>
      <point x="213" y="410"/>
      <point x="255" y="410" type="curve" smooth="yes"/>
      <point x="445" y="410" type="line"/>
      <point x="457" y="418" type="line"/>
      <point x="457" y="469"/>
      <point x="457" y="533"/>
      <point x="456" y="593" type="curve"/>
      <point x="376" y="593" type="line"/>
      <point x="376" y="482" type="line"/>
      <point x="237" y="482" type="line" smooth="yes"/>
      <point x="156" y="482"/>
      <point x="118" y="451"/>
      <point x="118" y="402" type="curve" smooth="yes"/>
      <point x="118" y="326"/>
      <point x="207" y="243"/>
      <point x="271" y="243" type="curve" smooth="yes"/>
      <point x="303" y="243"/>
      <point x="378" y="264"/>
      <point x="412" y="264" type="curve" smooth="yes"/>
      <point x="438" y="264"/>
      <point x="447" y="252"/>
      <point x="447" y="226" type="curve" smooth="yes"/>
      <point x="447" y="201"/>
      <point x="439" y="152"/>
      <point x="325" y="152" type="curve" smooth="yes"/>
      <point x="198" y="152"/>
      <point x="140" y="213"/>
      <point x="85" y="304" type="curve"/>
      <point x="48" y="284" type="line"/>
      <point x="118" y="157"/>
      <point x="218" y="80"/>
    </contour>
    <contour>
      <point x="261" y="-319" type="line"/>
      <point x="304" y="-284" type="line"/>
      <point x="130" y="-103" type="line"/>
      <point x="164" y="-96"/>
      <point x="193" y="-81"/>
      <point x="208" y="-40" type="curve" smooth="yes"/>
      <point x="222" y="-3"/>
      <point x="225" y="45"/>
      <point x="225" y="79" type="curve" smooth="yes"/>
      <point x="225" y="96"/>
      <point x="224" y="125"/>
      <point x="222" y="141" type="curve"/>
      <point x="155" y="161" type="line"/>
      <point x="156" y="143"/>
      <point x="156" y="122"/>
      <point x="156" y="101" type="curve" smooth="yes"/>
      <point x="156" y="62"/>
      <point x="155" y="23"/>
      <point x="150" y="7" type="curve"/>
      <point x="130" y="10"/>
      <point x="95" y="11"/>
      <point x="80" y="11" type="curve" smooth="yes"/>
      <point x="49" y="11"/>
      <point x="37" y="3"/>
      <point x="37" y="-17" type="curve" smooth="yes"/>
      <point x="37" y="-40"/>
      <point x="51" y="-72"/>
      <point x="104" y="-137" type="curve" smooth="yes"/>
      <point x="253" y="-319" type="line"/>
    </contour>
    <contour>
      <point x="340" y="-111" type="curve" smooth="yes"/>
      <point x="368" y="-111"/>
      <point x="397" y="-105"/>
      <point x="421" y="-95" type="curve"/>
      <point x="418" y="-6" type="line"/>
      <point x="394" y="-34"/>
      <point x="355" y="-46"/>
      <point x="314" y="-46" type="curve" smooth="yes"/>
      <point x="277" y="-46"/>
      <point x="239" y="-37"/>
      <point x="206" y="-18" type="curve"/>
      <point x="193" y="-49" type="line"/>
      <point x="242" y="-94"/>
      <point x="292" y="-111"/>
    </contour>
    <contour>
      <point x="481" y="-310" type="line"/>
      <point x="480" y="136" type="line"/>
      <point x="409" y="136" type="line"/>
      <point x="406" y="-268" type="line"/>
      <point x="472" y="-310" type="line"/>
    </contour>
    <contour>
      <point x="602" y="545" type="line"/>
      <point x="602" y="555" type="line"/>
      <point x="568" y="620" type="line"/>
      <point x="-28" y="620" type="line"/>
      <point x="-28" y="610" type="line"/>
      <point x="6" y="545" type="line"/>
    </contour>
  </outline>
</glyph>
<glyph name="dDdVa" format="2">
  <advance width="577"/>
  <outline>
    <contour>
      <point x="390" y="571" type="line"/>
      <point x="390" y="460" type="line"/>
      <point x="232" y="460" type="line" smooth="yes"/>
      <point x="150" y="460"/>
      <point x="113" y="427"/>
      <point x="113" y="378" type="curve" smooth="yes"/>
      <point x="113" y="293"/>
      <point x="205" y="201"/>
      <point x="271" y="201" type="curve" smooth="yes"/>
      <point x="305" y="201"/>
      <point x="391" y="225"/>
      <point x="430" y="225" type="curve" smooth="yes"/>
      <point x="454" y="225"/>
      <point x="468" y="209"/>
      <point x="468" y="187" type="curve" smooth="yes"/>
      <point x="468" y="144"/>
      <point x="442" y="87"/>
      <point x="331" y="87" type="curve" smooth="yes"/>
      <point x="196" y="87"/>
      <point x="118" y="175"/>
      <point x="64" y="281" type="curve"/>
      <point x="26" y="259" type="line"/>
      <point x="95" y="112"/>
      <point x="212" y="13"/>
      <point x="355" y="13" type="curve" smooth="yes"/>
      <point x="443" y="13"/>
      <point x="536" y="56"/>
      <point x="536" y="137" type="curve" smooth="yes"/>
      <point x="536" y="219"/>
      <point x="459" y="298"/>
      <point x="404" y="298" type="curve" smooth="yes"/>
      <point x="364" y="298"/>
      <point x="261" y="273"/>
      <point x="238" y="273" type="curve" smooth="yes"/>
      <point x="214" y="273"/>
      <point x="185" y="298"/>
      <point x="185" y="339" type="curve" smooth="yes"/>
      <point x="185" y="370"/>
      <point x="208" y="385"/>
      <point x="250" y="385" type="curve" smooth="yes"/>
      <point x="461" y="385" type="line"/>
      <point x="473" y="393" type="line"/>
      <point x="473" y="445"/>
      <point x="472" y="517"/>
      <point x="471" y="571" type="curve"/>
    </contour>
    <contour>
      <point x="314" y="-186" type="curve" smooth="yes"/>
      <point x="348" y="-186"/>
      <point x="379" y="-176"/>
      <point x="413" y="-158" type="curve"/>
      <point x="414" y="-69" type="line"/>
      <point x="360" y="-105"/>
      <point x="317" y="-128"/>
      <point x="273" y="-128" type="curve" smooth="yes"/>
      <point x="238" y="-128"/>
      <point x="207" y="-113"/>
      <point x="207" y="-71" type="curve" smooth="yes"/>
      <point x="207" y="-18"/>
      <point x="260" y="16"/>
      <point x="321" y="19" type="curve"/>
      <point x="214" y="67" type="line"/>
      <point x="167" y="41"/>
      <point x="140" y="4"/>
      <point x="140" y="-42" type="curve" smooth="yes"/>
      <point x="140" y="-128"/>
      <point x="228" y="-186"/>
    </contour>
    <contour>
      <point x="474" y="-274" type="line"/>
      <point x="472" y="76" type="line"/>
      <point x="398" y="52" type="line"/>
      <point x="395" y="-230" type="line"/>
      <point x="465" y="-274" type="line"/>
    </contour>
    <contour>
      <point x="605" y="545" type="line"/>
      <point x="605" y="555" type="line"/>
      <point x="571" y="620" type="line"/>
      <point x="-28" y="620" type="line"/>
      <point x="-28" y="610" type="line"/>
      <point x="6" y="545" type="line"/>
    </contour>
  </outline>
  <guideline angle="90" x="473" y="0"/>
</glyph>
<glyph name="dDdYa" format="2">
  <advance width="1058"/>
  <outline>
    <contour>
      <point x="355" y="7" type="curve" smooth="yes"/>
      <point x="485" y="7"/>
      <point x="536" y="85"/>
      <point x="536" y="137" type="curve" smooth="yes"/>
      <point x="536" y="219"/>
      <point x="459" y="298"/>
      <point x="404" y="298" type="curve" smooth="yes"/>
      <point x="364" y="298"/>
      <point x="261" y="273"/>
      <point x="238" y="273" type="curve" smooth="yes"/>
      <point x="214" y="273"/>
      <point x="185" y="298"/>
      <point x="185" y="339" type="curve" smooth="yes"/>
      <point x="185" y="370"/>
      <point x="208" y="385"/>
      <point x="250" y="385" type="curve" smooth="yes"/>
      <point x="640" y="385" type="line" smooth="yes"/>
      <point x="706" y="385"/>
      <point x="713" y="366"/>
      <point x="713" y="350" type="curve" smooth="yes"/>
      <point x="713" y="309"/>
      <point x="665" y="279"/>
      <point x="570" y="254" type="curve"/>
      <point x="590" y="142"/>
      <point x="674" y="55"/>
      <point x="775" y="55" type="curve" smooth="yes"/>
      <point x="810" y="55"/>
      <point x="848" y="65"/>
      <point x="880" y="85" type="curve"/>
      <point x="897" y="77" type="line"/>
      <point x="897" y="194" type="line"/>
      <point x="843" y="145"/>
      <point x="787" y="118"/>
      <point x="744" y="118" type="curve" smooth="yes"/>
      <point x="695" y="118"/>
      <point x="657" y="153"/>
      <point x="656" y="194" type="curve"/>
      <point x="747" y="222"/>
      <point x="783" y="258"/>
      <point x="783" y="309" type="curve" smooth="yes"/>
      <point x="783" y="364"/>
      <point x="738" y="460"/>
      <point x="614" y="460" type="curve" smooth="yes"/>
      <point x="232" y="460" type="line" smooth="yes"/>
      <point x="150" y="460"/>
      <point x="113" y="427"/>
      <point x="113" y="378" type="curve" smooth="yes"/>
      <point x="113" y="293"/>
      <point x="205" y="201"/>
      <point x="271" y="201" type="curve" smooth="yes"/>
      <point x="305" y="201"/>
      <point x="391" y="225"/>
      <point x="430" y="225" type="curve" smooth="yes"/>
      <point x="454" y="225"/>
      <point x="468" y="209"/>
      <point x="468" y="187" type="curve" smooth="yes"/>
      <point x="468" y="144"/>
      <point x="442" y="82"/>
      <point x="331" y="82" type="curve" smooth="yes"/>
      <point x="196" y="82"/>
      <point x="118" y="175"/>
      <point x="64" y="281" type="curve"/>
      <point x="26" y="259" type="line"/>
      <point x="103" y="96"/>
      <point x="226" y="7"/>
    </contour>
    <contour>
      <point x="472" y="424" type="line"/>
      <point x="472" y="462"/>
      <point x="471" y="543"/>
      <point x="471" y="581" type="curve"/>
      <point x="390" y="581" type="line"/>
      <point x="390" y="424" type="line"/>
    </contour>
    <contour>
      <point x="1086" y="545" type="line"/>
      <point x="1086" y="555" type="line"/>
      <point x="1052" y="620" type="line"/>
      <point x="-28" y="620" type="line"/>
      <point x="-28" y="610" type="line"/>
      <point x="6" y="545" type="line"/>
    </contour>
    <contour>
      <point x="971" y="-45" type="line"/>
      <point x="969" y="581" type="line"/>
      <point x="885" y="581" type="line"/>
      <point x="881" y="7" type="line"/>
      <point x="961" y="-45" type="line"/>
    </contour>
  </outline>
</glyph>
<glyph name="dDdhDdha" format="2">
  <advance width="558"/>
  <outline>
    <contour>
      <point x="351" y="80" type="curve" smooth="yes"/>
      <point x="425" y="80"/>
      <point x="506" y="123"/>
      <point x="506" y="203" type="curve" smooth="yes"/>
      <point x="506" y="301"/>
      <point x="421" y="343"/>
      <point x="359" y="343" type="curve" smooth="yes"/>
      <point x="304" y="343"/>
      <point x="249" y="299"/>
      <point x="249" y="238" type="curve" smooth="yes"/>
      <point x="249" y="209"/>
      <point x="257" y="176"/>
      <point x="270" y="144" type="curve"/>
      <point x="312" y="139" type="line"/>
      <point x="308" y="152"/>
      <point x="308" y="157"/>
      <point x="308" y="170" type="curve" smooth="yes"/>
      <point x="308" y="233"/>
      <point x="340" y="280"/>
      <point x="395" y="280" type="curve" smooth="yes"/>
      <point x="425" y="280"/>
      <point x="450" y="261"/>
      <point x="450" y="233" type="curve" smooth="yes"/>
      <point x="450" y="194"/>
      <point x="402" y="151"/>
      <point x="322" y="151" type="curve" smooth="yes"/>
      <point x="216" y="151"/>
      <point x="136" y="190"/>
      <point x="136" y="283" type="curve" smooth="yes"/>
      <point x="136" y="359"/>
      <point x="187" y="397"/>
      <point x="275" y="397" type="curve" smooth="yes"/>
      <point x="441" y="397" type="line"/>
      <point x="453" y="405" type="line"/>
      <point x="453" y="454"/>
      <point x="452" y="526"/>
      <point x="451" y="582" type="curve"/>
      <point x="370" y="582" type="line"/>
      <point x="370" y="468" type="line"/>
      <point x="272" y="468" type="line" smooth="yes"/>
      <point x="138" y="468"/>
      <point x="61" y="435"/>
      <point x="61" y="334" type="curve" smooth="yes"/>
      <point x="61" y="195"/>
      <point x="208" y="80"/>
    </contour>
    <contour>
      <point x="359" y="-348" type="curve" smooth="yes"/>
      <point x="449" y="-348"/>
      <point x="503" y="-295"/>
      <point x="503" y="-229" type="curve" smooth="yes"/>
      <point x="503" y="-128"/>
      <point x="417" y="-95"/>
      <point x="370" y="-95" type="curve" smooth="yes"/>
      <point x="317" y="-95"/>
      <point x="266" y="-132"/>
      <point x="266" y="-191" type="curve" smooth="yes"/>
      <point x="266" y="-221"/>
      <point x="275" y="-252"/>
      <point x="289" y="-284" type="curve"/>
      <point x="329" y="-291" type="line"/>
      <point x="321" y="-275"/>
      <point x="321" y="-266"/>
      <point x="321" y="-254" type="curve" smooth="yes"/>
      <point x="321" y="-199"/>
      <point x="354" y="-157"/>
      <point x="403" y="-157" type="curve" smooth="yes"/>
      <point x="429" y="-157"/>
      <point x="452" y="-175"/>
      <point x="452" y="-202" type="curve" smooth="yes"/>
      <point x="452" y="-239"/>
      <point x="407" y="-279"/>
      <point x="333" y="-279" type="curve" smooth="yes"/>
      <point x="235" y="-279"/>
      <point x="163" y="-227"/>
      <point x="163" y="-141" type="curve" smooth="yes"/>
      <point x="163" y="-74"/>
      <point x="205" y="-39"/>
      <point x="283" y="-39" type="curve" smooth="yes"/>
      <point x="437" y="-39" type="line"/>
      <point x="449" y="-31" type="line"/>
      <point x="449" y="13"/>
      <point x="448" y="102"/>
      <point x="447" y="151" type="curve"/>
      <point x="371" y="127" type="line"/>
      <point x="371" y="29" type="line"/>
      <point x="276" y="29" type="line" smooth="yes"/>
      <point x="165" y="29"/>
      <point x="93" y="-2"/>
      <point x="93" y="-93" type="curve" smooth="yes"/>
      <point x="93" y="-234"/>
      <point x="228" y="-348"/>
    </contour>
    <contour>
      <point x="586" y="545" type="line"/>
      <point x="586" y="555" type="line"/>
      <point x="552" y="620" type="line"/>
      <point x="-28" y="620" type="line"/>
      <point x="-28" y="610" type="line"/>
      <point x="6" y="545" type="line"/>
    </contour>
  </outline>
  <guideline angle="0" x="0" y="80"/>
</glyph>
<glyph name="dEight.ss04" format="2">
  <advance width="570"/>
  <outline>
    <contour>
      <point x="150" y="452" type="line"/>
      <point x="100" y="383"/>
      <point x="77" y="324"/>
      <point x="77" y="276" type="curve" smooth="yes"/>
      <point x="77" y="168"/>
      <point x="197" y="77"/>
      <point x="313" y="77" type="curve" smooth="yes"/>
      <point x="381" y="77"/>
      <point x="432" y="110"/>
      <point x="471" y="110" type="curve" smooth="yes"/>
      <point x="493" y="110"/>
      <point x="508" y="98"/>
      <point x="508" y="76" type="curve" smooth="yes"/>
      <point x="508" y="40"/>
      <point x="474" y="0"/>
      <point x="426" y="-34" type="curve"/>
      <point x="495" y="-97" type="line"/>
      <point x="558" y="-51"/>
      <point x="571" y="-5"/>
      <point x="571" y="33" type="curve" smooth="yes"/>
      <point x="571" y="117"/>
      <point x="497" y="185"/>
      <point x="432" y="185" type="curve" smooth="yes"/>
      <point x="383" y="185"/>
      <point x="322" y="151"/>
      <point x="260" y="151" type="curve" smooth="yes"/>
      <point x="207" y="151"/>
      <point x="162" y="171"/>
      <point x="162" y="239" type="curve" smooth="yes"/>
      <point x="162" y="311"/>
      <point x="205" y="393"/>
      <point x="260" y="452" type="curve"/>
    </contour>
    <contour>
      <point x="505" y="435" type="line"/>
      <point x="505" y="445" type="line"/>
      <point x="471" y="510" type="line"/>
      <point x="10" y="510" type="line"/>
      <point x="10" y="500" type="line"/>
      <point x="44" y="435" type="line"/>
    </contour>
  </outline>
</glyph>
<glyph name="dGBhYa" format="2">
  <advance width="1301"/>
  <outline>
    <component base="dYa" xOffset="719"/>
    <component base="dBh.half" xOffset="265"/>
    <contour>
      <point x="143" y="581" type="line"/>
      <point x="142" y="347" type="line"/>
      <point x="78" y="347" type="line" smooth="yes"/>
      <point x="60" y="347"/>
      <point x="53" y="336"/>
      <point x="53" y="324" type="curve" smooth="yes"/>
      <point x="53" y="270"/>
      <point x="160" y="170"/>
      <point x="204" y="170" type="curve" smooth="yes"/>
      <point x="219" y="170"/>
      <point x="227" y="178"/>
      <point x="227" y="195" type="curve" smooth="yes"/>
      <point x="225" y="581" type="line"/>
    </contour>
    <contour>
      <point x="407" y="545" type="line"/>
      <point x="403" y="620" type="line"/>
      <point x="-28" y="620" type="line"/>
      <point x="-28" y="610" type="line"/>
      <point x="6" y="545" type="line"/>
    </contour>
  </outline>
</glyph>
<glyph name="dGhR.half" format="2">
  <advance width="376"/>
  <outline>
    <contour>
      <point x="466" y="545" type="line"/>
      <point x="466" y="555" type="line"/>
      <point x="432" y="620" type="line"/>
      <point x="-28" y="620" type="line"/>
      <point x="-28" y="610" type="line"/>
      <point x="6" y="545" type="line"/>
    </contour>
    <contour>
      <point x="204" y="388" type="line"/>
      <point x="160" y="414"/>
      <point x="145" y="451"/>
      <point x="145" y="476" type="curve" smooth="yes"/>
      <point x="145" y="516"/>
      <point x="181" y="541"/>
      <point x="237" y="549" type="curve"/>
      <point x="90" y="566" type="line"/>
      <point x="63" y="543"/>
      <point x="56" y="522"/>
      <point x="56" y="499" type="curve" smooth="yes"/>
      <point x="56" y="440"/>
      <point x="113" y="397"/>
      <point x="162" y="359" type="curve"/>
    </contour>
    <contour>
      <point x="364" y="142" type="line"/>
      <point x="470" y="281" type="line"/>
      <point x="383" y="210"/>
      <point x="319" y="198"/>
      <point x="284" y="198" type="curve" smooth="yes"/>
      <point x="240" y="198"/>
      <point x="207" y="228"/>
      <point x="207" y="266" type="curve" smooth="yes"/>
      <point x="207" y="308"/>
      <point x="250" y="344"/>
      <point x="363" y="346" type="curve"/>
      <point x="323" y="428" type="line"/>
      <point x="224" y="420"/>
      <point x="133" y="391"/>
      <point x="133" y="313" type="curve" smooth="yes"/>
      <point x="133" y="255"/>
      <point x="189" y="138"/>
      <point x="325" y="141" type="curve" smooth="yes"/>
    </contour>
    <contour>
      <point x="355" y="165" type="line"/>
      <point x="275" y="165" type="line"/>
      <point x="275" y="144" type="line"/>
      <point x="136" y="52" type="line"/>
      <point x="194" y="-6" type="line"/>
      <point x="510" y="217" type="line"/>
      <point x="470" y="281" type="line"/>
    </contour>
  </outline>
</glyph>
<glyph name="dHNa" format="2">
  <advance width="591"/>
  <outline>
    <contour>
      <point x="323" y="300" type="curve" smooth="yes"/>
      <point x="193" y="300"/>
      <point x="79" y="212"/>
      <point x="79" y="88" type="curve" smooth="yes"/>
      <point x="79" y="-25"/>
      <point x="175" y="-129"/>
      <point x="379" y="-184" type="curve"/>
      <point x="390" y="-142" type="line"/>
      <point x="212" y="-92"/>
      <point x="160" y="-7"/>
      <point x="160" y="71" type="curve" smooth="yes"/>
      <point x="160" y="170"/>
      <point x="246" y="244"/>
      <point x="353" y="244" type="curve" smooth="yes"/>
      <point x="406" y="244"/>
      <point x="450" y="224"/>
      <point x="469" y="194" type="curve" smooth="yes"/>
      <point x="486" y="167"/>
      <point x="488" y="124"/>
      <point x="488" y="68" type="curve" smooth="yes"/>
      <point x="488" y="15"/>
      <point x="485" y="-29"/>
      <point x="483" y="-71" type="curve"/>
      <point x="555" y="-117" type="line"/>
      <point x="563" y="-117" type="line"/>
      <point x="561" y="75" type="line" smooth="yes"/>
      <point x="560" y="210"/>
      <point x="458" y="300"/>
    </contour>
    <contour>
      <point x="619" y="545" type="line"/>
      <point x="619" y="555" type="line"/>
      <point x="585" y="620" type="line"/>
      <point x="-28" y="620" type="line"/>
      <point x="-28" y="610" type="line"/>
      <point x="6" y="545" type="line"/>
    </contour>
    <contour>
      <point x="461" y="239" type="line"/>
      <point x="302" y="107" type="line" smooth="yes"/>
      <point x="260" y="72"/>
      <point x="246" y="60"/>
      <point x="246" y="43" type="curve" smooth="yes"/>
      <point x="246" y="3"/>
      <point x="325" y="-30"/>
      <point x="366" y="-30" type="curve" smooth="yes"/>
      <point x="388" y="-30"/>
      <point x="394" y="-19"/>
      <point x="394" y="-5" type="curve" smooth="yes"/>
      <point x="394" y="7"/>
      <point x="389" y="23"/>
      <point x="368" y="63" type="curve"/>
      <point x="506" y="181" type="line"/>
    </contour>
    <contour>
      <point x="161" y="233" type="line"/>
      <point x="142" y="251"/>
      <point x="127" y="279"/>
      <point x="127" y="306" type="curve" smooth="yes"/>
      <point x="127" y="360"/>
      <point x="173" y="385"/>
      <point x="252" y="385" type="curve" smooth="yes"/>
      <point x="440" y="385" type="line"/>
      <point x="452" y="393" type="line"/>
      <point x="452" y="445"/>
      <point x="451" y="537"/>
      <point x="450" y="591" type="curve"/>
      <point x="369" y="591" type="line"/>
      <point x="369" y="460" type="line"/>
      <point x="234" y="460" type="line" smooth="yes"/>
      <point x="110" y="460"/>
      <point x="54" y="412"/>
      <point x="54" y="341" type="curve" smooth="yes"/>
      <point x="54" y="289"/>
      <point x="86" y="234"/>
      <point x="129" y="199" type="curve"/>
    </contour>
  </outline>
</glyph>
<glyph name="dHNna" format="2">
  <advance width="599"/>
  <outline>
    <contour>
      <point x="398" y="-155" type="line"/>
      <point x="218" y="-103"/>
      <point x="156" y="-7"/>
      <point x="156" y="71" type="curve" smooth="yes"/>
      <point x="156" y="175"/>
      <point x="250" y="245"/>
      <point x="354" y="245" type="curve" smooth="yes"/>
      <point x="460" y="245"/>
      <point x="498" y="175"/>
      <point x="498" y="71" type="curve" smooth="yes"/>
      <point x="498" y="29"/>
      <point x="492" y="-69"/>
      <point x="492" y="-71" type="curve"/>
      <point x="564" y="-117" type="line"/>
      <point x="572" y="-117" type="line"/>
      <point x="570" y="75" type="line" smooth="yes"/>
      <point x="569" y="210"/>
      <point x="457" y="300"/>
      <point x="323" y="300" type="curve" smooth="yes"/>
      <point x="192" y="300"/>
      <point x="77" y="211"/>
      <point x="77" y="87" type="curve" smooth="yes"/>
      <point x="77" y="-26"/>
      <point x="179" y="-136"/>
      <point x="387" y="-197" type="curve"/>
    </contour>
    <contour>
      <point x="349" y="-31" type="curve" smooth="yes"/>
      <point x="414" y="-31"/>
      <point x="441" y="21"/>
      <point x="441" y="68" type="curve" smooth="yes"/>
      <point x="441" y="110"/>
      <point x="440" y="166"/>
      <point x="439" y="266" type="curve"/>
      <point x="371" y="276" type="line"/>
      <point x="371" y="71" type="line" smooth="yes"/>
      <point x="371" y="42"/>
      <point x="353" y="23"/>
      <point x="326" y="23" type="curve" smooth="yes"/>
      <point x="304" y="23"/>
      <point x="291" y="39"/>
      <point x="291" y="68" type="curve" smooth="yes"/>
      <point x="290" y="282" type="line"/>
      <point x="223" y="250" type="line"/>
      <point x="223" y="203"/>
      <point x="222" y="121"/>
      <point x="222" y="87" type="curve" smooth="yes"/>
      <point x="222" y="42"/>
      <point x="288" y="-31"/>
    </contour>
    <contour>
      <point x="161" y="234" type="line"/>
      <point x="142" y="251"/>
      <point x="127" y="279"/>
      <point x="127" y="306" type="curve" smooth="yes"/>
      <point x="127" y="360"/>
      <point x="173" y="385"/>
      <point x="252" y="385" type="curve" smooth="yes"/>
      <point x="440" y="385" type="line"/>
      <point x="452" y="393" type="line"/>
      <point x="452" y="445"/>
      <point x="451" y="527"/>
      <point x="450" y="581" type="curve"/>
      <point x="369" y="581" type="line"/>
      <point x="369" y="460" type="line"/>
      <point x="234" y="460" type="line" smooth="yes"/>
      <point x="110" y="460"/>
      <point x="54" y="412"/>
      <point x="54" y="341" type="curve" smooth="yes"/>
      <point x="54" y="289"/>
      <point x="87" y="235"/>
      <point x="128" y="200" type="curve"/>
    </contour>
    <contour>
      <point x="627" y="545" type="line"/>
      <point x="627" y="555" type="line"/>
      <point x="593" y="620" type="line"/>
      <point x="-28" y="620" type="line"/>
      <point x="-28" y="610" type="line"/>
      <point x="6" y="545" type="line"/>
    </contour>
  </outline>
</glyph>
<glyph name="dHa_dSignVocalicR" format="2">
  <advance width="543"/>
  <outline>
    <contour>
      <point x="440" y="-121" type="line"/>
      <point x="242" y="-69"/>
      <point x="178" y="10"/>
      <point x="178" y="84" type="curve" smooth="yes"/>
      <point x="178" y="163"/>
      <point x="252" y="246"/>
      <point x="345" y="246" type="curve" smooth="yes"/>
      <point x="384" y="246"/>
      <point x="414" y="236"/>
      <point x="414" y="214" type="curve" smooth="yes"/>
      <point x="414" y="168"/>
      <point x="287" y="162"/>
      <point x="287" y="82" type="curve" smooth="yes"/>
      <point x="287" y="41"/>
      <point x="352" y="-35"/>
      <point x="441" y="-35" type="curve" smooth="yes"/>
      <point x="472" y="-35"/>
      <point x="509" y="-24"/>
      <point x="546" y="-1" type="curve"/>
      <point x="501" y="63" type="line"/>
      <point x="485" y="54"/>
      <point x="441" y="30"/>
      <point x="397" y="30" type="curve" smooth="yes"/>
      <point x="378" y="30"/>
      <point x="360" y="37"/>
      <point x="360" y="57" type="curve" smooth="yes"/>
      <point x="360" y="108"/>
      <point x="487" y="110"/>
      <point x="487" y="177" type="curve" smooth="yes"/>
      <point x="487" y="221"/>
      <point x="437" y="304"/>
      <point x="322" y="304" type="curve" smooth="yes"/>
      <point x="205" y="304"/>
      <point x="96" y="217"/>
      <point x="96" y="103" type="curve" smooth="yes"/>
      <point x="96" y="-2"/>
      <point x="194" y="-106"/>
      <point x="429" y="-164" type="curve"/>
    </contour>
    <contour>
      <point x="162" y="229" type="line"/>
      <point x="141" y="245"/>
      <point x="122" y="276"/>
      <point x="122" y="306" type="curve" smooth="yes"/>
      <point x="122" y="360"/>
      <point x="168" y="385"/>
      <point x="247" y="385" type="curve" smooth="yes"/>
      <point x="435" y="385" type="line"/>
      <point x="447" y="393" type="line"/>
      <point x="447" y="440"/>
      <point x="446" y="495"/>
      <point x="445" y="581" type="curve"/>
      <point x="364" y="581" type="line"/>
      <point x="364" y="460" type="line"/>
      <point x="229" y="460" type="line" smooth="yes"/>
      <point x="105" y="460"/>
      <point x="49" y="412"/>
      <point x="49" y="341" type="curve" smooth="yes"/>
      <point x="49" y="285"/>
      <point x="88" y="226"/>
      <point x="133" y="192" type="curve"/>
    </contour>
    <contour>
      <point x="571" y="545" type="line"/>
      <point x="571" y="555" type="line"/>
      <point x="537" y="620" type="line"/>
      <point x="-28" y="620" type="line"/>
      <point x="-28" y="610" type="line"/>
      <point x="6" y="545" type="line"/>
    </contour>
  </outline>
</glyph>
<glyph name="dJNy.half" format="2">
  <advance width="379"/>
  <outline>
    <contour>
      <point x="104" y="356" type="line"/>
      <point x="180" y="327"/>
      <point x="276" y="263"/>
      <point x="276" y="174" type="curve" smooth="yes"/>
      <point x="276" y="123"/>
      <point x="243" y="89"/>
      <point x="180" y="99" type="curve"/>
      <point x="180" y="42" type="line"/>
      <point x="290" y="-150" type="line"/>
      <point x="299" y="-150" type="line"/>
      <point x="351" y="-117" type="line"/>
      <point x="229" y="52" type="line"/>
      <point x="215" y="77" type="line"/>
      <point x="167" y="147"/>
      <point x="116" y="183"/>
      <point x="87" y="183" type="curve" smooth="yes"/>
      <point x="63" y="183"/>
      <point x="51" y="158"/>
      <point x="51" y="131" type="curve" smooth="yes"/>
      <point x="51" y="49"/>
      <point x="162" y="25"/>
      <point x="209" y="25" type="curve" smooth="yes"/>
      <point x="305" y="25"/>
      <point x="358" y="87"/>
      <point x="358" y="152" type="curve" smooth="yes"/>
      <point x="358" y="236"/>
      <point x="271" y="310"/>
      <point x="214" y="348" type="curve"/>
      <point x="214" y="366" type="line"/>
    </contour>
    <contour>
      <point x="479" y="545" type="line"/>
      <point x="479" y="555" type="line"/>
      <point x="445" y="620" type="line"/>
      <point x="-28" y="620" type="line"/>
      <point x="-28" y="610" type="line"/>
      <point x="6" y="545" type="line"/>
    </contour>
    <contour>
      <point x="198" y="350" type="line"/>
      <point x="508" y="350" type="line"/>
      <point x="523" y="425" type="line"/>
      <point x="77" y="425" type="line"/>
      <point x="77" y="414" type="line"/>
      <point x="104" y="356" type="line"/>
    </contour>
  </outline>
</glyph>
<glyph name="dJh.half" format="2">
  <advance width="508"/>
  <outline>
    <contour>
      <point x="353" y="570" type="line"/>
      <point x="353" y="469" type="line"/>
      <point x="191" y="469" type="line" smooth="yes"/>
      <point x="99" y="469"/>
      <point x="47" y="448"/>
      <point x="47" y="385" type="curve" smooth="yes"/>
      <point x="47" y="313"/>
      <point x="116" y="220"/>
      <point x="201" y="220" type="curve" smooth="yes"/>
      <point x="247" y="220"/>
      <point x="330" y="247"/>
      <point x="366" y="247" type="curve" smooth="yes"/>
      <point x="388" y="247"/>
      <point x="411" y="238"/>
      <point x="411" y="201" type="curve" smooth="yes"/>
      <point x="411" y="133"/>
      <point x="327" y="90"/>
      <point x="243" y="87" type="curve"/>
      <point x="197" y="148"/>
      <point x="152" y="177"/>
      <point x="125" y="177" type="curve" smooth="yes"/>
      <point x="101" y="177"/>
      <point x="89" y="153"/>
      <point x="89" y="126" type="curve" smooth="yes"/>
      <point x="89" y="54"/>
      <point x="171" y="28"/>
      <point x="227" y="21" type="curve"/>
      <point x="328" y="-155" type="line"/>
      <point x="337" y="-155" type="line"/>
      <point x="389" y="-122" type="line"/>
      <point x="286" y="20" type="line"/>
      <point x="364" y="30"/>
      <point x="477" y="80"/>
      <point x="477" y="162" type="curve" smooth="yes"/>
      <point x="477" y="227"/>
      <point x="409" y="319"/>
      <point x="349" y="319" type="curve" smooth="yes"/>
      <point x="313" y="319"/>
      <point x="207" y="291"/>
      <point x="169" y="291" type="curve" smooth="yes"/>
      <point x="131" y="291"/>
      <point x="114" y="320"/>
      <point x="114" y="346" type="curve" smooth="yes"/>
      <point x="114" y="372"/>
      <point x="130" y="395"/>
      <point x="218" y="395" type="curve" smooth="yes"/>
      <point x="422" y="395" type="line"/>
      <point x="434" y="403" type="line"/>
      <point x="434" y="452"/>
      <point x="433" y="525"/>
      <point x="432" y="570" type="curve"/>
    </contour>
    <contour>
      <point x="551" y="214" type="curve" smooth="yes"/>
      <point x="566" y="214"/>
      <point x="585" y="216"/>
      <point x="616" y="230" type="curve"/>
      <point x="569" y="299" type="line"/>
      <point x="546" y="284"/>
      <point x="521" y="277"/>
      <point x="488" y="277" type="curve" smooth="yes"/>
      <point x="444" y="277"/>
      <point x="414" y="290"/>
      <point x="395" y="302" type="curve"/>
      <point x="437" y="236" type="line"/>
      <point x="450" y="249" type="line"/>
      <point x="471" y="231"/>
      <point x="505" y="214"/>
    </contour>
    <contour>
      <point x="608" y="545" type="line"/>
      <point x="608" y="555" type="line"/>
      <point x="574" y="620" type="line"/>
      <point x="-28" y="620" type="line"/>
      <point x="-28" y="610" type="line"/>
      <point x="6" y="545" type="line"/>
    </contour>
  </outline>
</glyph>
<glyph name="dK.half" format="2">
  <advance width="572"/>
  <outline>
    <contour>
      <point x="227" y="138" type="curve" smooth="yes"/>
      <point x="288" y="138"/>
      <point x="322" y="164"/>
      <point x="403" y="222" type="curve" smooth="yes"/>
      <point x="456" y="259"/>
      <point x="533" y="338"/>
      <point x="597" y="338" type="curve" smooth="yes"/>
      <point x="609" y="338"/>
      <point x="621" y="336"/>
      <point x="633" y="329" type="curve"/>
      <point x="653" y="370" type="line"/>
      <point x="622" y="399"/>
      <point x="596" y="412"/>
      <point x="568" y="412" type="curve" smooth="yes"/>
      <point x="522" y="412"/>
      <point x="474" y="381"/>
      <point x="400" y="323" type="curve" smooth="yes"/>
      <point x="293" y="239"/>
      <point x="233" y="202"/>
      <point x="184" y="202" type="curve" smooth="yes"/>
      <point x="148" y="202"/>
      <point x="117" y="226"/>
      <point x="117" y="277" type="curve" smooth="yes"/>
      <point x="117" y="342"/>
      <point x="172" y="378"/>
      <point x="229" y="378" type="curve" smooth="yes"/>
      <point x="286" y="378"/>
      <point x="340" y="342"/>
      <point x="375" y="301" type="curve"/>
      <point x="375" y="355" type="line"/>
      <point x="335" y="409"/>
      <point x="276" y="455"/>
      <point x="203" y="455" type="curve" smooth="yes"/>
      <point x="124" y="455"/>
      <point x="45" y="402"/>
      <point x="45" y="316" type="curve" smooth="yes"/>
      <point x="45" y="233"/>
      <point x="119" y="138"/>
    </contour>
    <contour>
      <point x="454" y="-10" type="line"/>
      <point x="451" y="581" type="line"/>
      <point x="369" y="581" type="line"/>
      <point x="364" y="44" type="line"/>
      <point x="444" y="-10" type="line"/>
    </contour>
    <contour>
      <point x="642" y="545" type="line"/>
      <point x="642" y="555" type="line"/>
      <point x="608" y="620" type="line"/>
      <point x="-28" y="620" type="line"/>
      <point x="-28" y="610" type="line"/>
      <point x="6" y="545" type="line"/>
    </contour>
  </outline>
  <guideline angle="90" x="542" y="0"/>
  <guideline angle="90" x="656" y="0"/>
</glyph>
<glyph name="dKRa" format="2">
  <advance width="763"/>
  <outline>
    <contour>
      <point x="645" y="68" type="line"/>
      <point x="690" y="130"/>
      <point x="716" y="181"/>
      <point x="716" y="243" type="curve" smooth="yes"/>
      <point x="716" y="363"/>
      <point x="619" y="425"/>
      <point x="571" y="425" type="curve" smooth="yes"/>
      <point x="534" y="425"/>
      <point x="477" y="389"/>
      <point x="439" y="358" type="curve"/>
      <point x="380" y="314" type="line" smooth="yes"/>
      <point x="316" y="264"/>
      <point x="240" y="202"/>
      <point x="184" y="202" type="curve" smooth="yes"/>
      <point x="148" y="202"/>
      <point x="117" y="226"/>
      <point x="117" y="277" type="curve" smooth="yes"/>
      <point x="117" y="342"/>
      <point x="172" y="378"/>
      <point x="229" y="378" type="curve" smooth="yes"/>
      <point x="286" y="378"/>
      <point x="340" y="342"/>
      <point x="375" y="301" type="curve"/>
      <point x="375" y="355" type="line"/>
      <point x="335" y="409"/>
      <point x="276" y="455"/>
      <point x="203" y="455" type="curve" smooth="yes"/>
      <point x="124" y="455"/>
      <point x="45" y="402"/>
      <point x="45" y="316" type="curve" smooth="yes"/>
      <point x="45" y="232"/>
      <point x="113" y="151"/>
      <point x="224" y="151" type="curve" smooth="yes"/>
      <point x="362" y="151"/>
      <point x="509" y="350"/>
      <point x="604" y="350" type="curve" smooth="yes"/>
      <point x="629" y="350"/>
      <point x="652" y="331"/>
      <point x="652" y="297" type="curve" smooth="yes"/>
      <point x="652" y="253"/>
      <point x="614" y="182"/>
      <point x="568" y="127" type="curve"/>
      <point x="637" y="68" type="line"/>
    </contour>
    <contour>
      <point x="406" y="234" type="line"/>
      <point x="398" y="314" type="line"/>
      <point x="53" y="74" type="line"/>
      <point x="111" y="16" type="line"/>
    </contour>
    <contour>
      <point x="454" y="-10" type="line"/>
      <point x="451" y="571" type="line"/>
      <point x="369" y="571" type="line"/>
      <point x="364" y="44" type="line"/>
      <point x="444" y="-10" type="line"/>
    </contour>
    <contour>
      <point x="791" y="545" type="line"/>
      <point x="791" y="555" type="line"/>
      <point x="757" y="620" type="line"/>
      <point x="-28" y="620" type="line"/>
      <point x="-28" y="610" type="line"/>
      <point x="6" y="545" type="line"/>
    </contour>
  </outline>
</glyph>
<glyph name="dKSTa" format="2">
  <advance width="1495"/>
  <outline>
    <contour>
      <point x="227" y="138" type="curve" smooth="yes"/>
      <point x="294" y="138"/>
      <point x="333" y="173"/>
      <point x="415" y="229" type="curve" smooth="yes"/>
      <point x="489" y="279"/>
      <point x="543" y="331"/>
      <point x="597" y="331" type="curve" smooth="yes"/>
      <point x="609" y="331"/>
      <point x="621" y="328"/>
      <point x="633" y="321" type="curve"/>
      <point x="653" y="362" type="line"/>
      <point x="622" y="391"/>
      <point x="596" y="404"/>
      <point x="568" y="404" type="curve" smooth="yes"/>
      <point x="514" y="404"/>
      <point x="452" y="355"/>
      <point x="400" y="319" type="curve" smooth="yes"/>
      <point x="329" y="270"/>
      <point x="244" y="202"/>
      <point x="184" y="202" type="curve" smooth="yes"/>
      <point x="148" y="202"/>
      <point x="117" y="226"/>
      <point x="117" y="277" type="curve" smooth="yes"/>
      <point x="117" y="342"/>
      <point x="172" y="378"/>
      <point x="229" y="378" type="curve" smooth="yes"/>
      <point x="286" y="378"/>
      <point x="340" y="342"/>
      <point x="375" y="301" type="curve"/>
      <point x="375" y="355" type="line"/>
      <point x="335" y="409"/>
      <point x="276" y="455"/>
      <point x="203" y="455" type="curve" smooth="yes"/>
      <point x="124" y="455"/>
      <point x="45" y="402"/>
      <point x="45" y="316" type="curve" smooth="yes"/>
      <point x="45" y="233"/>
      <point x="119" y="138"/>
    </contour>
    <contour>
      <point x="454" y="-10" type="line"/>
      <point x="451" y="601" type="line"/>
      <point x="369" y="601" type="line"/>
      <point x="364" y="44" type="line"/>
      <point x="444" y="-10" type="line"/>
    </contour>
    <contour>
      <point x="841" y="-20" type="line"/>
      <point x="892" y="22" type="line"/>
      <point x="676" y="246" type="line"/>
      <point x="673" y="235" type="line"/>
      <point x="770" y="250"/>
      <point x="798" y="305"/>
      <point x="798" y="471" type="curve" smooth="yes"/>
      <point x="798" y="487"/>
      <point x="798" y="544"/>
      <point x="790" y="567" type="curve"/>
      <point x="711" y="567" type="line"/>
      <point x="714" y="543"/>
      <point x="716" y="523"/>
      <point x="716" y="482" type="curve" smooth="yes"/>
      <point x="716" y="446"/>
      <point x="715" y="391"/>
      <point x="706" y="358" type="curve"/>
      <point x="717" y="367" type="line"/>
      <point x="698" y="369"/>
      <point x="650" y="373"/>
      <point x="627" y="374" type="curve"/>
      <point x="597" y="374"/>
      <point x="571" y="366"/>
      <point x="571" y="342" type="curve" smooth="yes"/>
      <point x="571" y="307"/>
      <point x="591" y="271"/>
      <point x="654" y="196" type="curve" smooth="yes"/>
      <point x="831" y="-20" type="line"/>
    </contour>
    <contour>
      <point x="921" y="228" type="curve" smooth="yes"/>
      <point x="951" y="228"/>
      <point x="982" y="237"/>
      <point x="1010" y="256" type="curve"/>
      <point x="975" y="323" type="line"/>
      <point x="963" y="317"/>
      <point x="930" y="302"/>
      <point x="889" y="302" type="curve" smooth="yes"/>
      <point x="857" y="302"/>
      <point x="816" y="311"/>
      <point x="776" y="338" type="curve"/>
      <point x="760" y="301" type="line"/>
      <point x="815" y="253"/>
      <point x="869" y="228"/>
    </contour>
    <contour>
      <point x="1035" y="545" type="line"/>
      <point x="1035" y="555" type="line"/>
      <point x="1001" y="620" type="line"/>
      <point x="-28" y="620" type="line"/>
      <point x="-28" y="610" type="line"/>
      <point x="6" y="545" type="line"/>
    </contour>
    <contour>
      <point x="1145" y="-10" type="line"/>
      <point x="1188" y="25" type="line"/>
      <point x="1076" y="153"/>
      <point x="1047" y="188"/>
      <point x="1047" y="248" type="curve" smooth="yes"/>
      <point x="1047" y="311"/>
      <point x="1094" y="360"/>
      <point x="1191" y="360" type="curve" smooth="yes"/>
      <point x="1346" y="360" type="line"/>
      <point x="1347" y="435" type="line"/>
      <point x="1180" y="435" type="line" smooth="yes"/>
      <point x="1053" y="435"/>
      <point x="970" y="393"/>
      <point x="970" y="294" type="curve" smooth="yes"/>
      <point x="970" y="208"/>
      <point x="1040" y="112"/>
      <point x="1135" y="-10" type="curve"/>
    </contour>
    <contour>
      <point x="1408" y="-10" type="line"/>
      <point x="1406" y="591" type="line"/>
      <point x="1322" y="591" type="line"/>
      <point x="1318" y="42" type="line"/>
      <point x="1398" y="-10" type="line"/>
    </contour>
    <contour>
      <point x="1523" y="545" type="line"/>
      <point x="1523" y="555" type="line"/>
      <point x="1489" y="620" type="line"/>
      <point x="894" y="620" type="line"/>
      <point x="894" y="610" type="line"/>
      <point x="928" y="545" type="line"/>
    </contour>
  </outline>
</glyph>
<glyph name="dKSs.half" format="2">
  <advance width="461"/>
  <outline>
    <contour>
      <point x="464" y="-126" type="line"/>
      <point x="516" y="-93" type="line"/>
      <point x="352" y="138" type="line"/>
      <point x="325" y="110"/>
      <point x="291" y="98"/>
      <point x="257" y="98" type="curve" smooth="yes"/>
      <point x="197" y="98"/>
      <point x="156" y="133"/>
      <point x="156" y="192" type="curve" smooth="yes"/>
      <point x="156" y="266"/>
      <point x="219" y="295"/>
      <point x="294" y="340" type="curve" smooth="yes"/>
      <point x="356" y="377"/>
      <point x="385" y="414"/>
      <point x="385" y="467" type="curve" smooth="yes"/>
      <point x="385" y="556"/>
      <point x="299" y="633"/>
      <point x="209" y="633" type="curve" smooth="yes"/>
      <point x="133" y="633"/>
      <point x="82" y="579"/>
      <point x="82" y="517" type="curve" smooth="yes"/>
      <point x="82" y="385"/>
      <point x="303" y="288"/>
      <point x="463" y="288" type="curve" smooth="yes"/>
      <point x="494" y="288"/>
      <point x="529" y="292"/>
      <point x="564" y="306" type="curve"/>
      <point x="554" y="394" type="line"/>
      <point x="502" y="365"/>
      <point x="459" y="351"/>
      <point x="403" y="351" type="curve" smooth="yes"/>
      <point x="297" y="351"/>
      <point x="158" y="400"/>
      <point x="158" y="487" type="curve" smooth="yes"/>
      <point x="158" y="533"/>
      <point x="199" y="567"/>
      <point x="245" y="567" type="curve" smooth="yes"/>
      <point x="288" y="567"/>
      <point x="317" y="541"/>
      <point x="317" y="501" type="curve" smooth="yes"/>
      <point x="317" y="449"/>
      <point x="269" y="418"/>
      <point x="206" y="380" type="curve" smooth="yes"/>
      <point x="128" y="333"/>
      <point x="75" y="291"/>
      <point x="75" y="224" type="curve" smooth="yes"/>
      <point x="75" y="131"/>
      <point x="183" y="31"/>
      <point x="306" y="31" type="curve" smooth="yes"/>
      <point x="402" y="31"/>
      <point x="449" y="91"/>
      <point x="449" y="133" type="curve" smooth="yes"/>
      <point x="449" y="180"/>
      <point x="374" y="222"/>
      <point x="331" y="222" type="curve" smooth="yes"/>
      <point x="307" y="222"/>
      <point x="295" y="208"/>
      <point x="295" y="187" type="curve" smooth="yes"/>
      <point x="295" y="158"/>
      <point x="323" y="109"/>
      <point x="343" y="72" type="curve" smooth="yes"/>
      <point x="454" y="-126" type="line"/>
    </contour>
    <contour>
      <point x="561" y="545" type="line"/>
      <point x="561" y="555" type="line"/>
      <point x="527" y="620" type="line"/>
      <point x="404" y="620" type="line"/>
      <point x="404" y="610" type="line"/>
      <point x="438" y="545" type="line"/>
    </contour>
  </outline>
</glyph>
<glyph name="dKTRa" format="2">
  <advance width="1182"/>
  <outline>
    <component base="dK.half"/>
    <contour>
      <point x="782" y="-10" type="line"/>
      <point x="825" y="25" type="line"/>
      <point x="713" y="153"/>
      <point x="687" y="187"/>
      <point x="687" y="248" type="curve" smooth="yes"/>
      <point x="687" y="345"/>
      <point x="759" y="374"/>
      <point x="855" y="374" type="curve" smooth="yes"/>
      <point x="908" y="374"/>
      <point x="978" y="365"/>
      <point x="1022" y="359" type="curve"/>
      <point x="1022" y="433" type="line"/>
      <point x="968" y="441"/>
      <point x="901" y="449"/>
      <point x="835" y="449" type="curve" smooth="yes"/>
      <point x="718" y="449"/>
      <point x="610" y="417"/>
      <point x="610" y="297" type="curve" smooth="yes"/>
      <point x="610" y="206"/>
      <point x="671" y="120"/>
      <point x="772" y="-10" type="curve"/>
    </contour>
    <contour>
      <point x="1044" y="319" type="line"/>
      <point x="1034" y="410" type="line"/>
      <point x="789" y="199" type="line"/>
      <point x="852" y="147" type="line"/>
    </contour>
    <contour>
      <point x="1095" y="-10" type="line"/>
      <point x="1093" y="591" type="line"/>
      <point x="1009" y="591" type="line"/>
      <point x="1007" y="42" type="line"/>
      <point x="1085" y="-10" type="line"/>
    </contour>
    <contour>
      <point x="1210" y="545" type="line"/>
      <point x="1210" y="555" type="line"/>
      <point x="1176" y="620" type="line"/>
      <point x="535" y="620" type="line"/>
      <point x="535" y="610" type="line"/>
      <point x="569" y="545" type="line"/>
    </contour>
  </outline>
</glyph>
<glyph name="dKTYa.ss02" format="2">
  <advance width="1210"/>
  <outline>
    <component base="dYa" xOffset="628"/>
    <contour>
      <point x="307" y="-10" type="line"/>
      <point x="350" y="25" type="line"/>
      <point x="243" y="147"/>
      <point x="214" y="192"/>
      <point x="214" y="245" type="curve" smooth="yes"/>
      <point x="214" y="312"/>
      <point x="261" y="360"/>
      <point x="358" y="360" type="curve"/>
      <point x="358" y="402" type="line"/>
      <point x="164" y="372" type="line"/>
      <point x="146" y="352"/>
      <point x="138" y="322"/>
      <point x="138" y="294" type="curve" smooth="yes"/>
      <point x="138" y="212"/>
      <point x="202" y="112"/>
      <point x="297" y="-10" type="curve"/>
    </contour>
    <contour>
      <point x="515" y="-10" type="line"/>
      <point x="513" y="571" type="line"/>
      <point x="429" y="571" type="line"/>
      <point x="425" y="42" type="line"/>
      <point x="505" y="-10" type="line"/>
    </contour>
    <contour>
      <point x="712" y="372" type="line"/>
      <point x="677" y="412"/>
      <point x="626" y="435"/>
      <point x="568" y="435" type="curve" smooth="yes"/>
      <point x="27" y="435" type="line"/>
      <point x="27" y="425" type="line"/>
      <point x="62" y="360" type="line"/>
      <point x="248" y="360" type="line"/>
      <point x="331" y="375" type="line"/>
      <point x="358" y="360" type="line"/>
      <point x="603" y="360" type="line" smooth="yes"/>
      <point x="637" y="360"/>
      <point x="665" y="357"/>
      <point x="680" y="340" type="curve"/>
    </contour>
    <contour>
      <point x="711" y="545" type="line"/>
      <point x="711" y="555" type="line"/>
      <point x="677" y="620" type="line"/>
      <point x="-28" y="620" type="line"/>
      <point x="-28" y="610" type="line"/>
      <point x="6" y="545" type="line"/>
    </contour>
  </outline>
</glyph>
<glyph name="dLJa" format="2">
  <advance width="1206"/>
  <outline>
    <contour>
      <point x="428" y="428" type="curve" smooth="yes"/>
      <point x="350" y="428"/>
      <point x="294" y="351"/>
      <point x="263" y="268" type="curve"/>
      <point x="336" y="223" type="line"/>
      <point x="389" y="334"/>
      <point x="416" y="363"/>
      <point x="470" y="363" type="curve" smooth="yes"/>
      <point x="491" y="363"/>
      <point x="513" y="354"/>
      <point x="527" y="341" type="curve"/>
      <point x="509" y="396" type="line"/>
      <point x="475" y="420"/>
      <point x="450" y="428"/>
    </contour>
    <contour>
      <point x="1029" y="42" type="line"/>
      <point x="1109" y="-10" type="line"/>
      <point x="1119" y="-10" type="line"/>
      <point x="1117" y="581" type="line"/>
      <point x="1033" y="581" type="line"/>
    </contour>
    <contour>
      <point x="331" y="368" type="line"/>
      <point x="295" y="411"/>
      <point x="252" y="454"/>
      <point x="187" y="454" type="curve" smooth="yes"/>
      <point x="101" y="454"/>
      <point x="49" y="382"/>
      <point x="49" y="299" type="curve" smooth="yes"/>
      <point x="49" y="193"/>
      <point x="130" y="110"/>
      <point x="254" y="-10" type="curve"/>
      <point x="264" y="-10" type="line"/>
      <point x="307" y="25" type="line"/>
      <point x="168" y="134"/>
      <point x="129" y="192"/>
      <point x="129" y="265" type="curve" smooth="yes"/>
      <point x="129" y="336"/>
      <point x="168" y="380"/>
      <point x="222" y="380" type="curve" smooth="yes"/>
      <point x="256" y="380"/>
      <point x="287" y="360"/>
      <point x="307" y="337" type="curve"/>
    </contour>
    <contour>
      <point x="1234" y="545" type="line"/>
      <point x="1234" y="555" type="line"/>
      <point x="1200" y="620" type="line"/>
      <point x="-28" y="620" type="line"/>
      <point x="-28" y="610" type="line"/>
      <point x="6" y="545" type="line"/>
    </contour>
    <contour>
      <point x="840" y="355" type="line"/>
      <point x="1047" y="355" type="line"/>
      <point x="1048" y="430" type="line"/>
      <point x="731" y="430" type="line"/>
      <point x="731" y="419" type="line"/>
      <point x="758" y="361" type="line"/>
    </contour>
    <contour>
      <point x="758" y="361" type="line"/>
      <point x="816" y="337"/>
      <point x="856" y="293"/>
      <point x="856" y="246" type="curve" smooth="yes"/>
      <point x="856" y="202"/>
      <point x="823" y="166"/>
      <point x="769" y="166" type="curve" smooth="yes"/>
      <point x="680" y="166"/>
      <point x="585" y="272"/>
      <point x="517" y="470" type="curve"/>
      <point x="476" y="452" type="line"/>
      <point x="529" y="287"/>
      <point x="642" y="85"/>
      <point x="796" y="85" type="curve" smooth="yes"/>
      <point x="870" y="85"/>
      <point x="937" y="130"/>
      <point x="937" y="208" type="curve" smooth="yes"/>
      <point x="937" y="264"/>
      <point x="904" y="308"/>
      <point x="841" y="371" type="curve"/>
    </contour>
  </outline>
</glyph>
<glyph name="dLMa" format="2">
  <advance width="1022"/>
  <outline>
    <component base="dMa" xOffset="410"/>
    <contour>
      <point x="438" y="442" type="curve" smooth="yes"/>
      <point x="360" y="442"/>
      <point x="296" y="353"/>
      <point x="263" y="268" type="curve"/>
      <point x="336" y="223" type="line"/>
      <point x="386" y="333"/>
      <point x="427" y="377"/>
      <point x="481" y="377" type="curve" smooth="yes"/>
      <point x="499" y="377"/>
      <point x="521" y="372"/>
      <point x="548" y="346" type="curve"/>
      <point x="550" y="387" type="line"/>
      <point x="503" y="431"/>
      <point x="466" y="442"/>
    </contour>
    <contour>
      <point x="556" y="545" type="line"/>
      <point x="556" y="555" type="line"/>
      <point x="522" y="620" type="line"/>
      <point x="-28" y="620" type="line"/>
      <point x="-28" y="610" type="line"/>
      <point x="6" y="545" type="line"/>
    </contour>
    <contour>
      <point x="330" y="369" type="line"/>
      <point x="294" y="411"/>
      <point x="252" y="454"/>
      <point x="187" y="454" type="curve" smooth="yes"/>
      <point x="101" y="454"/>
      <point x="49" y="382"/>
      <point x="49" y="299" type="curve" smooth="yes"/>
      <point x="49" y="193"/>
      <point x="130" y="110"/>
      <point x="254" y="-10" type="curve"/>
      <point x="264" y="-10" type="line"/>
      <point x="307" y="25" type="line"/>
      <point x="168" y="134"/>
      <point x="129" y="192"/>
      <point x="129" y="265" type="curve" smooth="yes"/>
      <point x="129" y="336"/>
      <point x="168" y="380"/>
      <point x="222" y="380" type="curve" smooth="yes"/>
      <point x="256" y="380"/>
      <point x="287" y="362"/>
      <point x="309" y="337" type="curve"/>
    </contour>
  </outline>
</glyph>
<glyph name="dLRa" format="2">
  <advance width="685"/>
  <outline>
    <contour>
      <point x="581" y="283" type="curve" smooth="yes"/>
      <point x="581" y="231"/>
      <point x="545" y="175"/>
      <point x="460" y="86" type="curve"/>
      <point x="522" y="33" type="line"/>
      <point x="530" y="33" type="line"/>
      <point x="599" y="104"/>
      <point x="640" y="184"/>
      <point x="640" y="245" type="curve" smooth="yes"/>
      <point x="640" y="317"/>
      <point x="584" y="444"/>
      <point x="468" y="444" type="curve" smooth="yes"/>
      <point x="380" y="444"/>
      <point x="317" y="375"/>
      <point x="268" y="272" type="curve"/>
      <point x="339" y="227" type="line"/>
      <point x="390" y="329"/>
      <point x="442" y="380"/>
      <point x="495" y="380" type="curve" smooth="yes"/>
      <point x="543" y="380"/>
      <point x="581" y="337"/>
    </contour>
    <contour>
      <point x="337" y="355" type="line"/>
      <point x="298" y="404"/>
      <point x="254" y="448"/>
      <point x="185" y="448" type="curve" smooth="yes"/>
      <point x="101" y="448"/>
      <point x="49" y="383"/>
      <point x="49" y="299" type="curve" smooth="yes"/>
      <point x="49" y="195"/>
      <point x="132" y="106"/>
      <point x="254" y="-10" type="curve"/>
      <point x="264" y="-10" type="line"/>
      <point x="307" y="25" type="line"/>
      <point x="168" y="132"/>
      <point x="129" y="194"/>
      <point x="129" y="266" type="curve" smooth="yes"/>
      <point x="129" y="339"/>
      <point x="169" y="374"/>
      <point x="220" y="374" type="curve" smooth="yes"/>
      <point x="257" y="374"/>
      <point x="288" y="356"/>
      <point x="315" y="323" type="curve"/>
    </contour>
    <contour>
      <point x="436" y="571" type="line"/>
      <point x="438" y="408" type="line"/>
      <point x="518" y="408" type="line"/>
      <point x="517" y="571" type="line"/>
    </contour>
    <contour>
      <point x="559" y="397" type="line"/>
      <point x="376" y="192" type="line"/>
      <point x="437" y="149" type="line"/>
      <point x="595" y="349" type="line"/>
    </contour>
    <contour>
      <point x="713" y="545" type="line"/>
      <point x="713" y="555" type="line"/>
      <point x="679" y="620" type="line"/>
      <point x="-28" y="620" type="line"/>
      <point x="-28" y="610" type="line"/>
      <point x="6" y="545" type="line"/>
    </contour>
  </outline>
</glyph>
<glyph name="dNMYa" format="2">
  <advance width="1200"/>
  <outline>
    <component base="dM.half" xOffset="277"/>
    <component base="dYa" xOffset="618"/>
    <contour>
      <point x="351" y="545" type="line"/>
      <point x="351" y="620" type="line"/>
      <point x="-28" y="620" type="line"/>
      <point x="-28" y="610" type="line"/>
      <point x="6" y="545" type="line"/>
    </contour>
    <contour>
      <point x="435" y="448" type="line"/>
      <point x="302" y="452"/>
      <point x="169" y="455"/>
      <point x="132" y="455" type="curve" smooth="yes"/>
      <point x="80" y="455"/>
      <point x="48" y="451"/>
      <point x="48" y="414" type="curve" smooth="yes"/>
      <point x="48" y="352"/>
      <point x="127" y="273"/>
      <point x="184" y="273" type="curve" smooth="yes"/>
      <point x="215" y="273"/>
      <point x="219" y="300"/>
      <point x="219" y="378" type="curve"/>
      <point x="434" y="378" type="line"/>
    </contour>
  </outline>
</glyph>
<glyph name="dNNYa" format="2">
  <advance width="928"/>
  <outline>
    <component base="dYa" xOffset="346"/>
    <contour>
      <point x="270" y="33" type="curve" smooth="yes"/>
      <point x="286" y="33"/>
      <point x="296" y="38"/>
      <point x="296" y="56" type="curve" smooth="yes"/>
      <point x="296" y="64"/>
      <point x="295" y="78"/>
      <point x="275" y="140" type="curve"/>
      <point x="445" y="248" type="line"/>
      <point x="414" y="316" type="line"/>
      <point x="209" y="190" type="line" smooth="yes"/>
      <point x="157" y="158"/>
      <point x="139" y="146"/>
      <point x="139" y="126" type="curve" smooth="yes"/>
      <point x="139" y="86"/>
      <point x="230" y="33"/>
    </contour>
    <contour>
      <point x="183" y="284" type="curve" smooth="yes"/>
      <point x="196" y="284"/>
      <point x="207" y="291"/>
      <point x="207" y="308" type="curve"/>
      <point x="207" y="310"/>
      <point x="206" y="320"/>
      <point x="204" y="335" type="curve" smooth="yes"/>
      <point x="199" y="378" type="line"/>
      <point x="284" y="383"/>
      <point x="365" y="338"/>
      <point x="412" y="286" type="curve"/>
      <point x="449" y="314" type="line"/>
      <point x="342" y="427"/>
      <point x="231" y="462"/>
      <point x="133" y="462" type="curve" smooth="yes"/>
      <point x="80" y="462"/>
      <point x="46" y="452"/>
      <point x="46" y="419" type="curve" smooth="yes"/>
      <point x="46" y="363"/>
      <point x="137" y="284"/>
    </contour>
    <contour>
      <point x="615" y="545" type="line"/>
      <point x="615" y="555" type="line"/>
      <point x="581" y="620" type="line"/>
      <point x="-28" y="620" type="line"/>
      <point x="-28" y="610" type="line"/>
      <point x="6" y="545" type="line"/>
    </contour>
  </outline>
</glyph>
<glyph name="dNSha" format="2">
  <advance width="1004"/>
  <outline>
    <component base="dSha" xOffset="325"/>
    <contour>
      <point x="415" y="282" type="line"/>
      <point x="302" y="285"/>
      <point x="169" y="288"/>
      <point x="132" y="288" type="curve" smooth="yes"/>
      <point x="80" y="288"/>
      <point x="48" y="284"/>
      <point x="48" y="247" type="curve" smooth="yes"/>
      <point x="48" y="185"/>
      <point x="127" y="106"/>
      <point x="184" y="106" type="curve" smooth="yes"/>
      <point x="215" y="106"/>
      <point x="219" y="133"/>
      <point x="219" y="211" type="curve"/>
      <point x="414" y="211" type="line"/>
    </contour>
    <contour>
      <point x="438" y="545" type="line"/>
      <point x="438" y="555" type="line"/>
      <point x="404" y="620" type="line"/>
      <point x="-28" y="620" type="line"/>
      <point x="-28" y="610" type="line"/>
      <point x="6" y="545" type="line"/>
    </contour>
  </outline>
</glyph>
<glyph name="dNgKa" format="2">
  <advance width="630"/>
  <outline>
    <contour>
      <point x="346" y="80" type="curve" smooth="yes"/>
      <point x="508" y="80"/>
      <point x="509" y="184"/>
      <point x="509" y="194" type="curve" smooth="yes"/>
      <point x="509" y="263"/>
      <point x="433" y="335"/>
      <point x="378" y="335" type="curve" smooth="yes"/>
      <point x="346" y="335"/>
      <point x="254" y="313"/>
      <point x="230" y="313" type="curve" smooth="yes"/>
      <point x="209" y="313"/>
      <point x="184" y="333"/>
      <point x="184" y="365" type="curve" smooth="yes"/>
      <point x="184" y="397"/>
      <point x="207" y="410"/>
      <point x="249" y="410" type="curve" smooth="yes"/>
      <point x="439" y="410" type="line"/>
      <point x="451" y="418" type="line"/>
      <point x="451" y="469"/>
      <point x="451" y="523"/>
      <point x="450" y="583" type="curve"/>
      <point x="370" y="583" type="line"/>
      <point x="370" y="482" type="line"/>
      <point x="231" y="482" type="line" smooth="yes"/>
      <point x="149" y="482"/>
      <point x="112" y="451"/>
      <point x="112" y="401" type="curve" smooth="yes"/>
      <point x="112" y="327"/>
      <point x="201" y="243"/>
      <point x="264" y="243" type="curve" smooth="yes"/>
      <point x="298" y="243"/>
      <point x="371" y="264"/>
      <point x="407" y="264" type="curve" smooth="yes"/>
      <point x="431" y="264"/>
      <point x="441" y="252"/>
      <point x="441" y="227" type="curve" smooth="yes"/>
      <point x="441" y="201"/>
      <point x="432" y="152"/>
      <point x="320" y="152" type="curve" smooth="yes"/>
      <point x="198" y="152"/>
      <point x="138" y="210"/>
      <point x="86" y="298" type="curve"/>
      <point x="49" y="278" type="line"/>
      <point x="116" y="154"/>
      <point x="218" y="80"/>
    </contour>
    <contour>
      <point x="507" y="-256" type="line"/>
      <point x="544" y="-207"/>
      <point x="566" y="-167"/>
      <point x="566" y="-118" type="curve" smooth="yes"/>
      <point x="566" y="-25"/>
      <point x="491" y="23"/>
      <point x="452" y="23" type="curve" smooth="yes"/>
      <point x="423" y="23"/>
      <point x="376" y="-10"/>
      <point x="331" y="-49" type="curve" smooth="yes"/>
      <point x="257" y="-114"/>
      <point x="208" y="-151"/>
      <point x="167" y="-151" type="curve" smooth="yes"/>
      <point x="140" y="-151"/>
      <point x="118" y="-134"/>
      <point x="118" y="-97" type="curve" smooth="yes"/>
      <point x="118" y="-46"/>
      <point x="161" y="-18"/>
      <point x="205" y="-18" type="curve" smooth="yes"/>
      <point x="245" y="-18"/>
      <point x="278" y="-42"/>
      <point x="306" y="-71" type="curve"/>
      <point x="305" y="-24" type="line"/>
      <point x="273" y="14"/>
      <point x="235" y="47"/>
      <point x="182" y="47" type="curve" smooth="yes"/>
      <point x="120" y="47"/>
      <point x="56" y="4"/>
      <point x="56" y="-64" type="curve" smooth="yes"/>
      <point x="56" y="-129"/>
      <point x="118" y="-206"/>
      <point x="201" y="-206" type="curve" smooth="yes"/>
      <point x="242" y="-206"/>
      <point x="270" y="-192"/>
      <point x="346" y="-126" type="curve" smooth="yes"/>
      <point x="405" y="-75"/>
      <point x="447" y="-41"/>
      <point x="479" y="-41" type="curve" smooth="yes"/>
      <point x="498" y="-41"/>
      <point x="513" y="-54"/>
      <point x="513" y="-78" type="curve" smooth="yes"/>
      <point x="513" y="-111"/>
      <point x="482" y="-166"/>
      <point x="443" y="-208" type="curve"/>
      <point x="500" y="-256" type="line"/>
    </contour>
    <contour>
      <point x="370" y="-325" type="line"/>
      <point x="368" y="118" type="line"/>
      <point x="298" y="119" type="line"/>
      <point x="295" y="-283" type="line"/>
      <point x="361" y="-325" type="line"/>
    </contour>
    <contour>
      <point x="658" y="545" type="line"/>
      <point x="658" y="555" type="line"/>
      <point x="624" y="620" type="line"/>
      <point x="-28" y="620" type="line"/>
      <point x="-28" y="610" type="line"/>
      <point x="6" y="545" type="line"/>
    </contour>
    <contour>
      <point x="614" y="355" type="line"/>
      <point x="546" y="423" type="line"/>
      <point x="478" y="354" type="line"/>
      <point x="545" y="288" type="line"/>
    </contour>
  </outline>
</glyph>
<glyph name="dNgYa" format="2">
  <advance width="1153"/>
  <outline>
    <contour>
      <point x="355" y="7" type="curve" smooth="yes"/>
      <point x="485" y="7"/>
      <point x="536" y="85"/>
      <point x="536" y="137" type="curve" smooth="yes"/>
      <point x="536" y="219"/>
      <point x="459" y="298"/>
      <point x="404" y="298" type="curve" smooth="yes"/>
      <point x="364" y="298"/>
      <point x="261" y="273"/>
      <point x="238" y="273" type="curve" smooth="yes"/>
      <point x="214" y="273"/>
      <point x="185" y="298"/>
      <point x="185" y="339" type="curve" smooth="yes"/>
      <point x="185" y="370"/>
      <point x="208" y="385"/>
      <point x="250" y="385" type="curve" smooth="yes"/>
      <point x="735" y="385" type="line" smooth="yes"/>
      <point x="801" y="385"/>
      <point x="808" y="366"/>
      <point x="808" y="350" type="curve" smooth="yes"/>
      <point x="808" y="309"/>
      <point x="760" y="279"/>
      <point x="665" y="254" type="curve"/>
      <point x="685" y="142"/>
      <point x="769" y="55"/>
      <point x="870" y="55" type="curve" smooth="yes"/>
      <point x="905" y="55"/>
      <point x="943" y="65"/>
      <point x="975" y="85" type="curve"/>
      <point x="992" y="77" type="line"/>
      <point x="992" y="194" type="line"/>
      <point x="938" y="145"/>
      <point x="882" y="118"/>
      <point x="839" y="118" type="curve" smooth="yes"/>
      <point x="790" y="118"/>
      <point x="752" y="153"/>
      <point x="751" y="194" type="curve"/>
      <point x="842" y="222"/>
      <point x="878" y="258"/>
      <point x="878" y="309" type="curve" smooth="yes"/>
      <point x="878" y="364"/>
      <point x="832" y="460"/>
      <point x="708" y="460" type="curve" smooth="yes"/>
      <point x="232" y="460" type="line" smooth="yes"/>
      <point x="150" y="460"/>
      <point x="113" y="427"/>
      <point x="113" y="378" type="curve" smooth="yes"/>
      <point x="113" y="293"/>
      <point x="205" y="201"/>
      <point x="271" y="201" type="curve" smooth="yes"/>
      <point x="305" y="201"/>
      <point x="391" y="225"/>
      <point x="430" y="225" type="curve" smooth="yes"/>
      <point x="454" y="225"/>
      <point x="468" y="209"/>
      <point x="468" y="187" type="curve" smooth="yes"/>
      <point x="468" y="144"/>
      <point x="442" y="82"/>
      <point x="331" y="82" type="curve" smooth="yes"/>
      <point x="196" y="82"/>
      <point x="118" y="175"/>
      <point x="64" y="281" type="curve"/>
      <point x="26" y="259" type="line"/>
      <point x="103" y="96"/>
      <point x="226" y="7"/>
    </contour>
    <contour>
      <point x="647" y="294" type="line"/>
      <point x="579" y="362" type="line"/>
      <point x="512" y="294" type="line"/>
      <point x="579" y="228" type="line"/>
    </contour>
    <contour>
      <point x="465" y="423" type="line"/>
      <point x="465" y="461"/>
      <point x="464" y="543"/>
      <point x="464" y="581" type="curve"/>
      <point x="383" y="581" type="line"/>
      <point x="383" y="423" type="line"/>
    </contour>
    <contour>
      <point x="1181" y="545" type="line"/>
      <point x="1181" y="555" type="line"/>
      <point x="1147" y="620" type="line"/>
      <point x="-28" y="620" type="line"/>
      <point x="-28" y="610" type="line"/>
      <point x="6" y="545" type="line"/>
    </contour>
    <contour>
      <point x="1066" y="-45" type="line"/>
      <point x="1064" y="581" type="line"/>
      <point x="980" y="581" type="line"/>
      <point x="976" y="7" type="line"/>
      <point x="1056" y="-45" type="line"/>
    </contour>
  </outline>
</glyph>
<glyph name="dPNa" format="2">
  <advance width="574"/>
  <outline>
    <contour>
      <point x="415" y="237" type="line"/>
      <point x="415" y="328" type="line"/>
      <point x="343" y="272"/>
      <point x="286" y="244"/>
      <point x="246" y="244" type="curve" smooth="yes"/>
      <point x="215" y="244"/>
      <point x="177" y="269"/>
      <point x="176" y="335" type="curve" smooth="yes"/>
      <point x="174" y="583" type="line"/>
      <point x="89" y="583" type="line"/>
      <point x="89" y="522"/>
      <point x="88" y="455"/>
      <point x="88" y="408" type="curve"/>
      <point x="88" y="406"/>
      <point x="88" y="370"/>
      <point x="89" y="357" type="curve" smooth="yes"/>
      <point x="93" y="296"/>
      <point x="153" y="219"/>
      <point x="238" y="188" type="curve"/>
    </contour>
    <contour>
      <point x="198" y="-23" type="curve" smooth="yes"/>
      <point x="215" y="-23"/>
      <point x="225" y="-17"/>
      <point x="225" y="2" type="curve" smooth="yes"/>
      <point x="225" y="7"/>
      <point x="225" y="21"/>
      <point x="201" y="84" type="curve"/>
      <point x="441" y="253" type="line"/>
      <point x="303" y="251" type="line"/>
      <point x="128" y="131" type="line" smooth="yes"/>
      <point x="91" y="106"/>
      <point x="63" y="91"/>
      <point x="63" y="67" type="curve" smooth="yes"/>
      <point x="63" y="28"/>
      <point x="152" y="-23"/>
    </contour>
    <contour>
      <point x="487" y="-10" type="line"/>
      <point x="485" y="583" type="line"/>
      <point x="401" y="583" type="line"/>
      <point x="401" y="301" type="line"/>
      <point x="398" y="279" type="line"/>
      <point x="397" y="42" type="line"/>
      <point x="477" y="-10" type="line"/>
    </contour>
    <contour>
      <point x="602" y="545" type="line"/>
      <point x="602" y="555" type="line"/>
      <point x="568" y="620" type="line"/>
      <point x="-28" y="620" type="line"/>
      <point x="-28" y="610" type="line"/>
      <point x="6" y="545" type="line"/>
    </contour>
  </outline>
</glyph>
<glyph name="dPhRa" format="2">
  <advance width="791"/>
  <outline>
    <contour>
      <point x="666" y="63" type="line"/>
      <point x="711" y="125"/>
      <point x="735" y="178"/>
      <point x="735" y="240" type="curve" smooth="yes"/>
      <point x="735" y="360"/>
      <point x="634" y="424"/>
      <point x="585" y="424" type="curve" smooth="yes"/>
      <point x="541" y="424"/>
      <point x="487" y="385"/>
      <point x="417" y="338" type="curve" smooth="yes"/>
      <point x="351" y="294"/>
      <point x="292" y="244"/>
      <point x="239" y="244" type="curve" smooth="yes"/>
      <point x="209" y="244"/>
      <point x="172" y="272"/>
      <point x="172" y="333" type="curve" smooth="yes"/>
      <point x="170" y="582" type="line"/>
      <point x="85" y="582" type="line"/>
      <point x="85" y="524"/>
      <point x="84" y="451"/>
      <point x="84" y="402" type="curve" smooth="yes"/>
      <point x="84" y="387"/>
      <point x="84" y="372"/>
      <point x="85" y="354" type="curve"/>
      <point x="86" y="285"/>
      <point x="188" y="181"/>
      <point x="283" y="181" type="curve"/>
      <point x="449" y="255" type="line"/>
      <point x="496" y="295"/>
      <point x="579" y="349"/>
      <point x="619" y="349" type="curve" smooth="yes"/>
      <point x="645" y="349"/>
      <point x="671" y="327"/>
      <point x="671" y="296" type="curve" smooth="yes"/>
      <point x="671" y="250"/>
      <point x="636" y="177"/>
      <point x="589" y="122" type="curve"/>
      <point x="658" y="63" type="line"/>
    </contour>
    <contour>
      <point x="424" y="250" type="line"/>
      <point x="293" y="250" type="line"/>
      <point x="59" y="91" type="line"/>
      <point x="116" y="33" type="line"/>
    </contour>
    <contour>
      <point x="462" y="-10" type="line"/>
      <point x="459" y="581" type="line"/>
      <point x="376" y="581" type="line"/>
      <point x="372" y="44" type="line"/>
      <point x="452" y="-10" type="line"/>
    </contour>
    <contour>
      <point x="819" y="545" type="line"/>
      <point x="819" y="555" type="line"/>
      <point x="785" y="620" type="line"/>
      <point x="-28" y="620" type="line"/>
      <point x="-28" y="610" type="line"/>
      <point x="5" y="545" type="line"/>
    </contour>
  </outline>
</glyph>
<glyph name="dSCa" format="2">
  <advance width="1006"/>
  <outline>
    <contour>
      <point x="829" y="42" type="line"/>
      <point x="909" y="-10" type="line"/>
      <point x="919" y="-10" type="line"/>
      <point x="917" y="581" type="line"/>
      <point x="833" y="581" type="line"/>
    </contour>
    <contour>
      <point x="316" y="-20" type="line"/>
      <point x="367" y="22" type="line"/>
      <point x="159" y="237" type="line"/>
      <point x="216" y="247"/>
      <point x="241" y="276"/>
      <point x="256" y="322" type="curve" smooth="yes"/>
      <point x="268" y="358"/>
      <point x="273" y="413"/>
      <point x="273" y="465" type="curve" smooth="yes"/>
      <point x="273" y="490"/>
      <point x="273" y="541"/>
      <point x="266" y="569" type="curve"/>
      <point x="188" y="569" type="line"/>
      <point x="189" y="545"/>
      <point x="191" y="523"/>
      <point x="191" y="482" type="curve" smooth="yes"/>
      <point x="191" y="449"/>
      <point x="190" y="401"/>
      <point x="183" y="368" type="curve"/>
      <point x="159" y="371"/>
      <point x="116" y="374"/>
      <point x="96" y="374" type="curve" smooth="yes"/>
      <point x="60" y="374"/>
      <point x="46" y="364"/>
      <point x="46" y="340" type="curve" smooth="yes"/>
      <point x="46" y="314"/>
      <point x="63" y="277"/>
      <point x="129" y="196" type="curve" smooth="yes"/>
      <point x="306" y="-20" type="line"/>
    </contour>
    <contour>
      <point x="424" y="218" type="curve" smooth="yes"/>
      <point x="444" y="218"/>
      <point x="479" y="221"/>
      <point x="516" y="247" type="curve"/>
      <point x="496" y="325" type="line"/>
      <point x="462" y="304"/>
      <point x="428" y="295"/>
      <point x="396" y="295" type="curve" smooth="yes"/>
      <point x="348" y="295"/>
      <point x="282" y="317"/>
      <point x="253" y="337" type="curve"/>
      <point x="231" y="304" type="line"/>
      <point x="315" y="232"/>
      <point x="380" y="218"/>
    </contour>
    <contour>
      <point x="513" y="370" type="line"/>
      <point x="694" y="385" type="line"/>
      <point x="732" y="373" type="line"/>
      <point x="746" y="373"/>
      <point x="752" y="373"/>
      <point x="774" y="372" type="curve"/>
      <point x="774" y="382" type="line"/>
      <point x="741" y="446" type="line"/>
      <point x="372" y="446" type="line"/>
      <point x="372" y="436" type="line"/>
      <point x="407" y="370" type="line"/>
    </contour>
    <contour>
      <point x="1034" y="545" type="line"/>
      <point x="1034" y="555" type="line"/>
      <point x="1000" y="620" type="line"/>
      <point x="-28" y="620" type="line"/>
      <point x="-28" y="610" type="line"/>
      <point x="6" y="545" type="line"/>
    </contour>
    <contour>
      <point x="852" y="301" type="line"/>
      <point x="748" y="209"/>
      <point x="685" y="192"/>
      <point x="644" y="192" type="curve" smooth="yes"/>
      <point x="596" y="192"/>
      <point x="551" y="215"/>
      <point x="551" y="277" type="curve" smooth="yes"/>
      <point x="551" y="365"/>
      <point x="644" y="373"/>
      <point x="732" y="373" type="curve"/>
      <point x="732" y="397" type="line"/>
      <point x="523" y="397" type="line"/>
      <point x="490" y="373"/>
      <point x="479" y="336"/>
      <point x="479" y="310" type="curve" smooth="yes"/>
      <point x="479" y="232"/>
      <point x="556" y="128"/>
      <point x="691" y="128" type="curve" smooth="yes"/>
      <point x="735" y="128"/>
      <point x="778" y="138"/>
      <point x="850" y="195" type="curve"/>
    </contour>
  </outline>
</glyph>
<glyph name="dSNa" format="2">
  <advance width="734"/>
  <outline>
    <contour>
      <point x="316" y="-20" type="line"/>
      <point x="366" y="21" type="line"/>
      <point x="149" y="255" type="line"/>
      <point x="143" y="243" type="line"/>
      <point x="201" y="253"/>
      <point x="236" y="269"/>
      <point x="256" y="318" type="curve" smooth="yes"/>
      <point x="269" y="351"/>
      <point x="278" y="401"/>
      <point x="278" y="472" type="curve" smooth="yes"/>
      <point x="278" y="494"/>
      <point x="276" y="548"/>
      <point x="273" y="567" type="curve"/>
      <point x="193" y="567" type="line"/>
      <point x="194" y="549"/>
      <point x="196" y="529"/>
      <point x="196" y="487" type="curve" smooth="yes"/>
      <point x="196" y="450"/>
      <point x="195" y="401"/>
      <point x="185" y="368" type="curve"/>
      <point x="196" y="377" type="line"/>
      <point x="176" y="380"/>
      <point x="124" y="384"/>
      <point x="97" y="384" type="curve" smooth="yes"/>
      <point x="61" y="384"/>
      <point x="46" y="374"/>
      <point x="46" y="352" type="curve" smooth="yes"/>
      <point x="46" y="322"/>
      <point x="63" y="290"/>
      <point x="128" y="206" type="curve" smooth="yes"/>
      <point x="306" y="-20" type="line"/>
    </contour>
    <contour>
      <point x="450" y="69" type="curve" smooth="yes"/>
      <point x="470" y="69"/>
      <point x="475" y="79"/>
      <point x="475" y="91" type="curve" smooth="yes"/>
      <point x="475" y="101"/>
      <point x="472" y="115"/>
      <point x="449" y="165" type="curve"/>
      <point x="558" y="250" type="line"/>
      <point x="590" y="230" type="line"/>
      <point x="597" y="371" type="line"/>
      <point x="387" y="208" type="line" smooth="yes"/>
      <point x="348" y="177"/>
      <point x="333" y="161"/>
      <point x="333" y="143" type="curve" smooth="yes"/>
      <point x="333" y="103"/>
      <point x="423" y="69"/>
    </contour>
    <contour>
      <point x="571" y="252" type="line"/>
      <point x="571" y="369" type="line"/>
      <point x="531" y="333"/>
      <point x="456" y="322"/>
      <point x="400" y="322" type="curve" smooth="yes"/>
      <point x="336" y="322"/>
      <point x="290" y="336"/>
      <point x="259" y="351" type="curve"/>
      <point x="243" y="312" type="line"/>
      <point x="297" y="276"/>
      <point x="355" y="258"/>
      <point x="450" y="258" type="curve"/>
      <point x="450" y="252" type="line"/>
    </contour>
    <contour>
      <point x="647" y="-10" type="line"/>
      <point x="645" y="581" type="line"/>
      <point x="562" y="581" type="line"/>
      <point x="558" y="42" type="line"/>
      <point x="637" y="-10" type="line"/>
    </contour>
    <contour>
      <point x="762" y="545" type="line"/>
      <point x="762" y="555" type="line"/>
      <point x="728" y="620" type="line"/>
      <point x="-28" y="620" type="line"/>
      <point x="-28" y="610" type="line"/>
      <point x="6" y="545" type="line"/>
    </contour>
  </outline>
</glyph>
<glyph name="dSha_dSignVocalicR.ss03" format="2">
  <advance width="701"/>
  <outline>
    <component base="dSh.half"/>
    <contour>
      <point x="605" y="-231" type="curve" smooth="yes"/>
      <point x="668" y="-231"/>
      <point x="715" y="-206"/>
      <point x="737" y="-192" type="curve"/>
      <point x="689" y="-130" type="line"/>
      <point x="640" y="-158"/>
      <point x="601" y="-167"/>
      <point x="568" y="-167" type="curve" smooth="yes"/>
      <point x="514" y="-167"/>
      <point x="501" y="-142"/>
      <point x="501" y="-123" type="curve" smooth="yes"/>
      <point x="501" y="-93"/>
      <point x="534" y="-53"/>
      <point x="638" y="-45" type="curve"/>
      <point x="638" y="-39" type="line"/>
      <point x="594" y="19" type="line"/>
      <point x="509" y="16"/>
      <point x="437" y="-28"/>
      <point x="437" y="-92" type="curve" smooth="yes"/>
      <point x="437" y="-145"/>
      <point x="489" y="-231"/>
    </contour>
    <contour>
      <point x="612" y="581" type="line"/>
      <point x="528" y="581" type="line"/>
      <point x="524" y="-37" type="line"/>
      <point x="614" y="-37" type="line"/>
    </contour>
    <contour>
      <point x="729" y="545" type="line"/>
      <point x="729" y="555" type="line"/>
      <point x="695" y="620" type="line"/>
      <point x="386" y="620" type="line"/>
      <point x="386" y="610" type="line"/>
      <point x="420" y="545" type="line"/>
    </contour>
  </outline>
</glyph>
<glyph name="dSsPa" format="2">
  <advance width="857"/>
  <outline>
    <component base="dPa" xOffset="300"/>
    <contour>
      <point x="289" y="165" type="curve" smooth="yes"/>
      <point x="323" y="165"/>
      <point x="369" y="172"/>
      <point x="447" y="237" type="curve"/>
      <point x="423" y="322" type="line"/>
      <point x="374" y="276"/>
      <point x="296" y="230"/>
      <point x="241" y="230" type="curve" smooth="yes"/>
      <point x="209" y="230"/>
      <point x="161" y="258"/>
      <point x="161" y="322" type="curve" smooth="yes"/>
      <point x="159" y="582" type="line"/>
      <point x="74" y="582" type="line"/>
      <point x="74" y="520"/>
      <point x="73" y="449"/>
      <point x="73" y="398" type="curve" smooth="yes"/>
      <point x="73" y="383"/>
      <point x="73" y="363"/>
      <point x="74" y="345" type="curve" smooth="yes"/>
      <point x="76" y="276"/>
      <point x="185" y="165"/>
    </contour>
    <contour>
      <point x="434" y="283" type="line"/>
      <point x="136" y="577" type="line"/>
      <point x="127" y="524" type="line"/>
      <point x="384" y="271" type="line"/>
    </contour>
    <contour>
      <point x="446" y="545" type="line"/>
      <point x="446" y="555" type="line"/>
      <point x="412" y="620" type="line"/>
      <point x="-28" y="620" type="line"/>
      <point x="-28" y="610" type="line"/>
      <point x="6" y="545" type="line"/>
    </contour>
  </outline>
</glyph>
<glyph name="dSsSsa" format="2">
  <advance width="872"/>
  <outline>
    <component base="dSsa" xOffset="300"/>
    <contour>
      <point x="289" y="165" type="curve" smooth="yes"/>
      <point x="323" y="165"/>
      <point x="369" y="172"/>
      <point x="447" y="237" type="curve"/>
      <point x="434" y="283" type="line"/>
      <point x="389" y="293" type="line"/>
      <point x="332" y="252"/>
      <point x="278" y="230"/>
      <point x="241" y="230" type="curve" smooth="yes"/>
      <point x="209" y="230"/>
      <point x="162" y="258"/>
      <point x="161" y="322" type="curve" smooth="yes"/>
      <point x="158" y="562" type="line"/>
      <point x="74" y="562" type="line"/>
      <point x="74" y="500"/>
      <point x="73" y="449"/>
      <point x="73" y="398" type="curve" smooth="yes"/>
      <point x="73" y="383"/>
      <point x="73" y="363"/>
      <point x="74" y="345" type="curve" smooth="yes"/>
      <point x="76" y="276"/>
      <point x="185" y="165"/>
    </contour>
    <contour>
      <point x="434" y="283" type="line"/>
      <point x="133" y="579" type="line"/>
      <point x="127" y="525" type="line"/>
      <point x="402" y="253" type="line"/>
    </contour>
    <contour>
      <point x="446" y="545" type="line"/>
      <point x="446" y="555" type="line"/>
      <point x="412" y="620" type="line"/>
      <point x="-28" y="620" type="line"/>
      <point x="-28" y="610" type="line"/>
      <point x="6" y="545" type="line"/>
    </contour>
  </outline>
</glyph>
<glyph name="dSsTta" format="2">
  <advance width="575"/>
  <outline>
    <contour>
      <point x="603" y="545" type="line"/>
      <point x="603" y="555" type="line"/>
      <point x="569" y="620" type="line"/>
      <point x="-28" y="620" type="line"/>
      <point x="-28" y="610" type="line"/>
      <point x="6" y="545" type="line"/>
      <point x="94" y="545" type="line"/>
      <point x="94" y="489"/>
      <point x="93" y="459"/>
      <point x="93" y="411" type="curve" smooth="yes"/>
      <point x="93" y="340"/>
      <point x="106" y="281"/>
      <point x="189" y="226" type="curve"/>
      <point x="136" y="206"/>
      <point x="86" y="182"/>
      <point x="86" y="105" type="curve" smooth="yes"/>
      <point x="86" y="-14"/>
      <point x="217" y="-109"/>
      <point x="340" y="-109" type="curve" smooth="yes"/>
      <point x="414" y="-109"/>
      <point x="478" y="-76"/>
      <point x="530" y="-20" type="curve"/>
      <point x="469" y="42" type="line"/>
      <point x="419" y="-3"/>
      <point x="368" y="-35"/>
      <point x="290" y="-35" type="curve" smooth="yes"/>
      <point x="204" y="-35"/>
      <point x="161" y="2"/>
      <point x="161" y="62" type="curve" smooth="yes"/>
      <point x="161" y="136"/>
      <point x="219" y="153"/>
      <point x="314" y="179" type="curve" smooth="yes"/>
      <point x="427" y="210"/>
      <point x="486" y="245"/>
      <point x="486" y="355" type="curve" smooth="yes"/>
      <point x="486" y="442"/>
      <point x="486" y="493"/>
      <point x="485" y="545" type="curve"/>
    </contour>
    <contour>
      <point x="403" y="545" type="line"/>
      <point x="402" y="365" type="line"/>
      <point x="402" y="350"/>
      <point x="401" y="338"/>
      <point x="399" y="328" type="curve"/>
      <point x="179" y="545" type="line"/>
    </contour>
    <contour>
      <point x="316" y="264" type="curve" smooth="yes"/>
      <point x="293" y="256"/>
      <point x="274" y="251"/>
      <point x="256" y="251" type="curve" smooth="yes"/>
      <point x="215" y="251"/>
      <point x="182" y="272"/>
      <point x="181" y="340" type="curve" smooth="yes"/>
      <point x="179" y="484" type="line"/>
      <point x="375" y="292" type="line"/>
      <point x="362" y="282"/>
      <point x="343" y="274"/>
    </contour>
  </outline>
  <guideline angle="90" x="93" y="0"/>
</glyph>
<glyph name="dSsTtha" format="2">
  <advance width="581"/>
  <outline>
    <contour>
      <point x="328" y="-115" type="curve" smooth="yes"/>
      <point x="445" y="-115"/>
      <point x="530" y="-44"/>
      <point x="530" y="50" type="curve" smooth="yes"/>
      <point x="530" y="119"/>
      <point x="492" y="174"/>
      <point x="412" y="234" type="curve"/>
      <point x="368" y="208" type="line"/>
      <point x="419" y="179"/>
      <point x="451" y="129"/>
      <point x="451" y="78" type="curve" smooth="yes"/>
      <point x="451" y="4"/>
      <point x="374" y="-44"/>
      <point x="283" y="-44" type="curve" smooth="yes"/>
      <point x="212" y="-44"/>
      <point x="154" y="-11"/>
      <point x="154" y="59" type="curve" smooth="yes"/>
      <point x="154" y="134"/>
      <point x="216" y="152"/>
      <point x="314" y="179" type="curve"/>
      <point x="432" y="210"/>
      <point x="486" y="251"/>
      <point x="486" y="355" type="curve" smooth="yes"/>
      <point x="486" y="449"/>
      <point x="486" y="521"/>
      <point x="485" y="580" type="curve"/>
      <point x="403" y="580" type="line"/>
      <point x="402" y="365" type="line" smooth="yes"/>
      <point x="402" y="333"/>
      <point x="398" y="314"/>
      <point x="384" y="300" type="curve" smooth="yes"/>
      <point x="361" y="276"/>
      <point x="288" y="251"/>
      <point x="256" y="251" type="curve" smooth="yes"/>
      <point x="215" y="251"/>
      <point x="182" y="272"/>
      <point x="181" y="340" type="curve" smooth="yes"/>
      <point x="178" y="594" type="line"/>
      <point x="94" y="594" type="line"/>
      <point x="94" y="526"/>
      <point x="93" y="465"/>
      <point x="93" y="411" type="curve" smooth="yes"/>
      <point x="93" y="336"/>
      <point x="107" y="273"/>
      <point x="202" y="217" type="curve"/>
      <point x="201" y="230" type="line"/>
      <point x="131" y="209"/>
      <point x="79" y="182"/>
      <point x="79" y="103" type="curve" smooth="yes"/>
      <point x="79" y="-9"/>
      <point x="195" y="-115"/>
    </contour>
    <contour>
      <point x="429" y="298" type="line"/>
      <point x="155" y="569" type="line"/>
      <point x="137" y="525" type="line"/>
      <point x="402" y="266" type="line"/>
    </contour>
    <contour>
      <point x="609" y="545" type="line"/>
      <point x="609" y="555" type="line"/>
      <point x="575" y="620" type="line"/>
      <point x="-28" y="620" type="line"/>
      <point x="-28" y="610" type="line"/>
      <point x="6" y="545" type="line"/>
    </contour>
  </outline>
</glyph>
<glyph name="dTNYa" format="2">
  <advance width="955"/>
  <outline>
    <contour>
      <point x="335" y="120" type="curve" smooth="yes"/>
      <point x="351" y="120"/>
      <point x="360" y="133"/>
      <point x="360" y="147" type="curve" smooth="yes"/>
      <point x="360" y="156"/>
      <point x="356" y="173"/>
      <point x="338" y="225" type="curve"/>
      <point x="459" y="293" type="line"/>
      <point x="474" y="311" type="line"/>
      <point x="590" y="331"/>
      <point x="636" y="371"/>
      <point x="636" y="426" type="curve" smooth="yes"/>
      <point x="636" y="463"/>
      <point x="616" y="503"/>
      <point x="581" y="562" type="curve"/>
      <point x="524" y="562" type="line"/>
      <point x="552" y="520"/>
      <point x="564" y="491"/>
      <point x="564" y="468" type="curve" smooth="yes"/>
      <point x="564" y="439"/>
      <point x="544" y="415"/>
      <point x="493" y="397" type="curve"/>
      <point x="247" y="259" type="line" smooth="yes"/>
      <point x="220" y="244"/>
      <point x="206" y="232"/>
      <point x="206" y="216" type="curve" smooth="yes"/>
      <point x="206" y="173"/>
      <point x="302" y="120"/>
    </contour>
    <contour>
      <point x="983" y="545" type="line"/>
      <point x="983" y="555" type="line"/>
      <point x="949" y="620" type="line"/>
      <point x="-28" y="620" type="line"/>
      <point x="-28" y="610" type="line"/>
      <point x="6" y="545" type="line"/>
    </contour>
    <contour>
      <point x="868" y="-10" type="line"/>
      <point x="866" y="571" type="line"/>
      <point x="782" y="571" type="line"/>
      <point x="778" y="42" type="line"/>
      <point x="858" y="-10" type="line"/>
    </contour>
    <contour>
      <point x="223" y="-10" type="line"/>
      <point x="266" y="25" type="line"/>
      <point x="154" y="153"/>
      <point x="128" y="188"/>
      <point x="128" y="246" type="curve" smooth="yes"/>
      <point x="128" y="350"/>
      <point x="201" y="380"/>
      <point x="299" y="380" type="curve" smooth="yes"/>
      <point x="356" y="380"/>
      <point x="398" y="370"/>
      <point x="418" y="365" type="curve"/>
      <point x="434" y="259"/>
      <point x="535" y="136"/>
      <point x="662" y="136" type="curve" smooth="yes"/>
      <point x="707" y="136"/>
      <point x="754" y="151"/>
      <point x="795" y="184" type="curve"/>
      <point x="795" y="283" type="line"/>
      <point x="735" y="229"/>
      <point x="674" y="199"/>
      <point x="623" y="199" type="curve" smooth="yes"/>
      <point x="550" y="199"/>
      <point x="498" y="254"/>
      <point x="498" y="324" type="curve"/>
      <point x="527" y="401" type="line"/>
      <point x="450" y="430"/>
      <point x="351" y="453"/>
      <point x="265" y="453" type="curve" smooth="yes"/>
      <point x="145" y="453"/>
      <point x="51" y="411"/>
      <point x="51" y="299" type="curve" smooth="yes"/>
      <point x="51" y="207"/>
      <point x="112" y="120"/>
      <point x="213" y="-10" type="curve"/>
    </contour>
  </outline>
</glyph>
<glyph name="dTtSa" format="2">
  <advance width="531"/>
  <outline>
    <contour>
      <point x="312" y="89" type="curve" smooth="yes"/>
      <point x="410" y="89"/>
      <point x="477" y="148"/>
      <point x="507" y="180" type="curve"/>
      <point x="448" y="240" type="line"/>
      <point x="401" y="195"/>
      <point x="341" y="162"/>
      <point x="268" y="162" type="curve" smooth="yes"/>
      <point x="189" y="162"/>
      <point x="128" y="198"/>
      <point x="128" y="271" type="curve" smooth="yes"/>
      <point x="128" y="341"/>
      <point x="185" y="381"/>
      <point x="268" y="381" type="curve" smooth="yes"/>
      <point x="395" y="381" type="line"/>
      <point x="407" y="389" type="line"/>
      <point x="407" y="441"/>
      <point x="406" y="527"/>
      <point x="405" y="581" type="curve"/>
      <point x="324" y="581" type="line"/>
      <point x="324" y="455" type="line"/>
      <point x="265" y="455" type="line" smooth="yes"/>
      <point x="132" y="455"/>
      <point x="52" y="417"/>
      <point x="52" y="321" type="curve" smooth="yes"/>
      <point x="52" y="202"/>
      <point x="176" y="89"/>
    </contour>
    <contour>
      <point x="244" y="-319" type="line"/>
      <point x="287" y="-284" type="line"/>
      <point x="113" y="-103" type="line"/>
      <point x="149" y="-95"/>
      <point x="176" y="-81"/>
      <point x="192" y="-38" type="curve" smooth="yes"/>
      <point x="205" y="-3"/>
      <point x="208" y="47"/>
      <point x="208" y="82" type="curve" smooth="yes"/>
      <point x="208" y="100"/>
      <point x="207" y="127"/>
      <point x="205" y="143" type="curve"/>
      <point x="138" y="163" type="line"/>
      <point x="139" y="144"/>
      <point x="139" y="125"/>
      <point x="139" y="104" type="curve" smooth="yes"/>
      <point x="139" y="63"/>
      <point x="138" y="24"/>
      <point x="133" y="7" type="curve"/>
      <point x="113" y="10"/>
      <point x="79" y="11"/>
      <point x="67" y="11" type="curve" smooth="yes"/>
      <point x="34" y="11"/>
      <point x="22" y="4"/>
      <point x="22" y="-18" type="curve" smooth="yes"/>
      <point x="22" y="-40"/>
      <point x="34" y="-72"/>
      <point x="87" y="-137" type="curve" smooth="yes"/>
      <point x="236" y="-319" type="line"/>
    </contour>
    <contour>
      <point x="321" y="-111" type="curve" smooth="yes"/>
      <point x="350" y="-111"/>
      <point x="374" y="-105"/>
      <point x="401" y="-94" type="curve"/>
      <point x="396" y="-6" type="line"/>
      <point x="371" y="-34"/>
      <point x="336" y="-46"/>
      <point x="295" y="-46" type="curve" smooth="yes"/>
      <point x="258" y="-46"/>
      <point x="222" y="-37"/>
      <point x="189" y="-18" type="curve"/>
      <point x="175" y="-48" type="line"/>
      <point x="226" y="-94"/>
      <point x="273" y="-111"/>
    </contour>
    <contour>
      <point x="460" y="-310" type="line"/>
      <point x="459" y="166" type="line"/>
      <point x="387" y="166" type="line"/>
      <point x="384" y="-268" type="line"/>
      <point x="451" y="-310" type="line"/>
    </contour>
    <contour>
      <point x="559" y="545" type="line"/>
      <point x="559" y="555" type="line"/>
      <point x="525" y="620" type="line"/>
      <point x="-28" y="620" type="line"/>
      <point x="-28" y="610" type="line"/>
      <point x="6" y="545" type="line"/>
    </contour>
  </outline>
</glyph>
<glyph name="dTtTtYa" format="2">
  <advance width="1036"/>
  <outline>
    <component base="dTtTta"/>
    <contour>
      <point x="875" y="192" type="line"/>
      <point x="821" y="143"/>
      <point x="765" y="116"/>
      <point x="722" y="116" type="curve" smooth="yes"/>
      <point x="673" y="116"/>
      <point x="635" y="151"/>
      <point x="634" y="192" type="curve"/>
      <point x="725" y="220"/>
      <point x="761" y="255"/>
      <point x="761" y="306" type="curve" smooth="yes"/>
      <point x="761" y="361"/>
      <point x="717" y="454"/>
      <point x="593" y="454" type="curve" smooth="yes"/>
      <point x="390" y="454" type="line"/>
      <point x="390" y="381" type="line"/>
      <point x="618" y="381" type="line" smooth="yes"/>
      <point x="684" y="381"/>
      <point x="691" y="363"/>
      <point x="691" y="347" type="curve" smooth="yes"/>
      <point x="691" y="306"/>
      <point x="643" y="277"/>
      <point x="548" y="252" type="curve"/>
      <point x="568" y="140"/>
      <point x="652" y="53"/>
      <point x="753" y="53" type="curve" smooth="yes"/>
      <point x="788" y="53"/>
      <point x="826" y="63"/>
      <point x="858" y="83" type="curve"/>
      <point x="874" y="75" type="line"/>
    </contour>
    <contour>
      <point x="863" y="581" type="line"/>
      <point x="859" y="7" type="line"/>
      <point x="939" y="-45" type="line"/>
      <point x="949" y="-45" type="line"/>
      <point x="947" y="581" type="line"/>
    </contour>
    <contour>
      <point x="1064" y="545" type="line"/>
      <point x="1064" y="555" type="line"/>
      <point x="1030" y="620" type="line"/>
      <point x="479" y="620" type="line"/>
      <point x="479" y="610" type="line"/>
      <point x="513" y="545" type="line"/>
    </contour>
  </outline>
</glyph>
<glyph name="dY.half" format="2">
  <advance width="306"/>
  <outline>
    <contour>
      <point x="289" y="136" type="curve" smooth="yes"/>
      <point x="337" y="136"/>
      <point x="394" y="153"/>
      <point x="444" y="205" type="curve"/>
      <point x="405" y="269" type="line"/>
      <point x="350" y="224"/>
      <point x="296" y="199"/>
      <point x="250" y="199" type="curve" smooth="yes"/>
      <point x="182" y="199"/>
      <point x="129" y="250"/>
      <point x="127" y="310" type="curve"/>
      <point x="224" y="337"/>
      <point x="263" y="375"/>
      <point x="263" y="426" type="curve" smooth="yes"/>
      <point x="263" y="463"/>
      <point x="244" y="503"/>
      <point x="201" y="573" type="curve"/>
      <point x="144" y="573" type="line"/>
      <point x="180" y="520"/>
      <point x="191" y="491"/>
      <point x="191" y="469" type="curve" smooth="yes"/>
      <point x="191" y="424"/>
      <point x="144" y="396"/>
      <point x="40" y="371" type="curve"/>
      <point x="64" y="239"/>
      <point x="170" y="136"/>
    </contour>
    <contour>
      <point x="406" y="545" type="line"/>
      <point x="406" y="555" type="line"/>
      <point x="372" y="620" type="line"/>
      <point x="-28" y="620" type="line"/>
      <point x="-28" y="610" type="line"/>
      <point x="6" y="545" type="line"/>
    </contour>
  </outline>
</glyph>
<glyph name="dZero.sups" format="2">
  <advance width="448"/>
  <outline>
    <contour>
      <point x="253" y="659" type="curve" smooth="yes"/>
      <point x="182" y="659"/>
      <point x="112" y="603"/>
      <point x="112" y="521" type="curve" smooth="yes"/>
      <point x="112" y="432"/>
      <point x="192" y="357"/>
      <point x="276" y="357" type="curve" smooth="yes"/>
      <point x="351" y="357"/>
      <point x="419" y="416"/>
      <point x="419" y="493" type="curve" smooth="yes"/>
      <point x="419" y="574"/>
      <point x="341" y="659"/>
    </contour>
    <contour>
      <point x="291" y="598" type="curve" smooth="yes"/>
      <point x="332" y="598"/>
      <point x="352" y="570"/>
      <point x="352" y="532" type="curve" smooth="yes"/>
      <point x="352" y="470"/>
      <point x="300" y="418"/>
      <point x="241" y="418" type="curve" smooth="yes"/>
      <point x="197" y="418"/>
      <point x="175" y="449"/>
      <point x="175" y="483" type="curve" smooth="yes"/>
      <point x="175" y="540"/>
      <point x="233" y="598"/>
    </contour>
  </outline>
</glyph>
<glyph name="headline100" format="2">
  <advance width="100"/>
  <outline>
    <contour>
      <point x="128" y="545" type="line"/>
      <point x="128" y="555" type="line"/>
      <point x="94" y="620" type="line"/>
      <point x="-28" y="620" type="line"/>
      <point x="-28" y="610" type="line"/>
      <point x="6" y="545" type="line"/>
    </contour>
  </outline>
</glyph>
